#VRML V2.0 utf8
# 3D model generated by easyeda2kicad.py (https://github.com/uPesy/easyeda2kicad.py)

Shape{
    appearance Appearance {
        material  Material 	{
            diffuseColor 1.0 1.0 0.0
            specularColor 0.5019607843137255 0.5019607843137255 0.0
            ambientIntensity 0.886
            transparency 0.0
            shininess 0.5
        }
    }
    geometry IndexedFaceSet {
        ccw TRUE
        solid FALSE
        coord DEF co Coordinate {
            point [
                0.1424 -1.6547 0.7616, 0.2466 -1.6547 0.8507, 0.1424 1.6547 0.7616, 0.2848 -1.6513 0.8861, 0.3208 -1.6395 0.9214, 0.3399 -1.6333 0.9401, 0.3399 1.6333 0.9401, 0.3214 1.6413 0.9215, 0.2847 1.6513 0.886, 0.2466 1.6547 0.8507, 0.4308 -1.4471 1.0374, 0.4645 -1.5008 1.0765, 0.4829 -1.4578 1.0986, 0.4973 -1.4117 1.1162, 0.5077 -1.3629 1.1292, 0.5139 -1.3123 1.1371, 0.3878 -1.6019 0.99, 0.4168 -1.5734 1.0217, 0.4425 -1.5394 1.0508, 0.4646 1.5006 1.0767, 0.4425 1.5394 1.0508, 0.4308 1.4471 1.0374, 0.4169 1.5732 1.0218, 0.3878 1.6019 0.99, 0.5077 1.3629 1.1292, 0.4973 1.4118 1.1162, 0.4829 1.4578 1.0986, 0.516 -1.261 1.1397, 0.516 1.261 1.1397, 0.5139 1.3125 1.137, -1.0766 -1.0848 0.2545, -1.3357 -1.6547 0.2402, -1.0699 -1.6547 0.2552, -1.1296 -1.0629 0.2492, -1.1847 -1.0454 0.245, -1.3357 -1.0454 0.2402, -0.8463 -1.2539 0.2916, -0.8864 -1.2129 0.2834, -0.9297 -1.1753 0.2754, -0.9763 -1.1411 0.2677, -1.0222 -1.1126 0.2611, -1.0699 -1.0882 0.2553, -0.7402 -1.3553 0.3167, -0.778 -1.3308 0.3071, -0.8076 -1.6547 0.3001, -0.8076 -1.3002 0.3001, -0.8093 -1.2984 0.2997, -0.552 -1.6547 0.3743, -0.6529 -1.3757 0.3413, -0.6977 -1.3705 0.3282, -0.3064 -1.6547 0.4769, -0.3064 -1.3757 0.4769, -0.552 -1.3757 0.3743, 0.0482 1.3327 0.6895, 0.0794 1.3015 0.7125, 0.0109 1.3562 0.663, -0.0308 1.3707 0.6346, -0.0739 1.6547 0.6066, -0.0739 1.3756 0.6066, 0.1028 1.2642 0.7304, 0.1112 1.2439 0.7369, 0.1174 1.2226 0.7417, 0.1223 -1.1788 0.7456, 0.1223 1.1788 0.7456, 0.121 1.201 0.7446, 0.1206 -1.2047 0.7442, 0.1156 -1.2298 0.7403, 0.1072 -1.2545 0.7338, 0.0959 -1.2772 0.7251, 0.0814 -1.299 0.7141, 0.0646 -1.318 0.7016, 0.0239 -1.3493 0.6721, -0.0236 -1.369 0.6394, -0.0739 -1.6547 0.6066, -0.0739 -1.3756 0.6066, -0.0746 -1.3757 0.6062, -0.778 1.3308 0.3071, -0.7402 1.3553 0.3167, -0.8076 1.6547 0.3001, -0.6977 1.3705 0.3282, -0.552 1.6547 0.3743, -0.6529 1.3757 0.3413, -0.552 1.3757 0.3743, -0.3064 1.6547 0.4769, -0.3064 1.3757 0.4769, -0.0746 1.3757 0.6062, -1.0222 1.1126 0.2611, -0.9763 1.1411 0.2677, -1.0699 1.6547 0.2552, -0.9297 1.1753 0.2754, -0.8864 1.2129 0.2834, -0.8462 1.2539 0.2916, -0.8093 1.2984 0.2997, -0.8076 1.3002 0.3001, -1.3357 1.6547 0.2402, -1.3357 1.0454 0.2402, -1.1847 1.0454 0.245, -1.1296 1.063 0.2492, -1.0767 1.085 0.2545, -1.0699 1.0878 0.2552, 0.5779 1.261 1.091, 0.5779 -1.261 1.091, -0.272 -1.3757 0.4061, -0.272 -1.6547 0.4061, -0.5258 -1.6547 0.3001, -0.272 1.6547 0.4061, -0.272 1.3757 0.4061, -0.5258 1.3757 0.3001, -1.3357 1.0454 0.1614, -1.3357 1.6547 0.1614, -1.1847 1.0454 0.1661, -1.1296 1.063 0.1702, -0.8093 1.2984 0.219, -1.061 1.6547 0.177, -0.7899 1.3185 0.2234, -0.7899 1.6547 0.2234, -0.778 1.3308 0.2261, -0.8462 1.2539 0.2111, -0.8864 1.2129 0.2032, -0.9297 1.1753 0.1955, -0.9763 1.1411 0.1881, -1.061 1.0921 0.177, -1.0768 1.0854 0.1754, -0.6529 1.3757 0.2591, -0.6977 1.3705 0.2465, -0.7402 1.3553 0.2354, -0.5258 1.6547 0.3001, -0.0746 1.3757 0.5135, -0.0317 1.6547 0.5401, -0.0317 1.3708 0.5401, -0.0317 -1.6547 0.5401, -0.0318 -1.37 0.5402, -0.0236 -1.369 0.5453, 0.1919 -1.6547 0.7003, 0.0239 -1.3493 0.5764, 0.0646 -1.318 0.6045, 0.0814 -1.2989 0.6164, 0.0959 -1.2772 0.6269, 0.1072 -1.2545 0.6351, 0.1223 1.1788 0.6463, 0.121 1.2011 0.6454, 0.1919 1.6547 0.7003, 0.1156 -1.2298 0.6413, 0.1206 -1.2047 0.645, 0.1223 -1.1788 0.6463, 0.1174 1.2226 0.6426, 0.1028 1.2642 0.6319, 0.0794 1.3015 0.6149, 0.0482 1.3327 0.593, 0.0109 1.3562 0.5677, -0.0308 1.3707 0.5407, -0.0746 -1.3757 0.5135, -0.7899 -1.6547 0.2234, -0.778 -1.3308 0.2261, -0.7402 -1.3553 0.2354, -0.6977 -1.3705 0.2465, -0.6529 -1.3757 0.2591, -0.5258 -1.3757 0.3001, -0.9297 -1.1753 0.1955, -0.8864 -1.2129 0.2032, -1.061 -1.6547 0.177, -0.9763 -1.1411 0.1881, -0.8463 -1.2539 0.2111, -0.8093 -1.2984 0.219, -0.7899 -1.3185 0.2234, -1.3357 -1.6547 0.1614, -1.3357 -1.0454 0.1614, -1.1847 -1.0454 0.1661, -1.1296 -1.0629 0.1702, -1.0766 -1.0848 0.1752, -1.061 -1.0921 0.177, 0.3093 1.6547 0.8014, 0.3473 1.6513 0.8369, 0.3834 1.6401 0.8724, 0.3093 -1.6547 0.8014, 0.3472 -1.6513 0.8368, 0.3837 -1.6413 0.8725, 0.3959 1.6362 0.8848, 0.3958 -1.6352 0.8849, 0.4898 1.4486 0.9853, 0.5265 1.5008 1.0278, 0.5448 1.4578 1.0499, 0.5592 1.4117 1.0676, 0.5696 1.3629 1.0805, 0.5758 1.3123 1.0884, 0.4239 1.6211 0.9136, 0.45 1.6019 0.9412, 0.4788 1.5734 0.9729, 0.5045 1.5394 1.0021, 0.5266 -1.5006 1.028, 0.5045 -1.5394 1.0021, 0.4898 -1.4481 0.9853, 0.4789 -1.5732 0.9731, 0.45 -1.6019 0.9412, 0.4238 -1.6212 0.9134, 0.5696 -1.3629 1.0805, 0.5592 -1.4118 1.0675, 0.5448 -1.4578 1.0499, 0.5758 -1.3125 1.0884, -1.3564 -1.4974 0.1614, -1.3642 -1.4785 0.1614, -1.3767 -1.4621 0.1614, -1.393 -1.4496 0.1614, -1.9912 -1.4391 0.1614, -2.5624 -0.9301 0.1614, -2.4809 -0.9926 0.1614, -1.3537 -1.5178 0.1614, -1.3537 -1.6547 0.1614, -2.247 -1.3584 0.1614, -2.2592 -1.3288 0.1614, -2.2788 -1.3034 0.1614, -1.412 1.4418 0.1614, -1.393 1.4496 0.1614, -1.3767 1.4621 0.1614, -1.3642 1.4785 0.1614, -1.3537 1.6547 0.1614, -1.3537 1.5178 0.1614, -1.3564 1.4974 0.1614, -1.9912 -1.6547 0.1614, -2.2428 -1.6547 0.1614, -2.2428 -1.3902 0.1614, -2.427 -1.2839 0.1614, -2.4524 -1.3034 0.1614, -2.7387 -1.3353 0.1614, -2.4719 -1.3288 0.1614, -2.284 1.0454 0.1614, -1.9912 1.4391 0.1614, -1.4324 1.4391 0.1614, -2.3042 -1.2839 0.1614, -2.3338 -1.2716 0.1614, -2.625 -0.8485 0.1614, -2.3656 -1.2674 0.1614, -2.4884 -1.6547 0.1614, -2.7387 -1.6547 0.1614, -2.4884 -1.3902 0.1614, -2.4842 -1.3584 0.1614, -1.412 -1.4418 0.1614, -1.4324 -1.4391 0.1614, -2.284 -1.0454 0.1614, -2.3859 -1.032 0.1614, -2.7964 1.1961 0.1614, -2.5624 0.9301 0.1614, -2.8372 1.1648 0.1614, -2.625 0.8485 0.1614, -2.8846 1.1451 0.1614, -2.6643 0.7536 0.1614, -2.9356 1.1384 0.1614, -2.3974 -1.2716 0.1614, -2.7455 -1.2843 0.1614, -2.7651 -1.2368 0.1614, -2.7964 -1.1961 0.1614, -2.8372 -1.1648 0.1614, -2.6643 -0.7536 0.1614, -3.1901 1.0174 0.1614, -3.2321 0.917 0.1614, -2.6777 0.6517 0.1614, -3.2321 -0.917 0.1614, -2.6777 -0.6517 0.1614, -3.1675 1.0577 0.1614, -3.1361 1.0915 0.1614, -3.0976 1.1171 0.1614, -3.0543 1.133 0.1614, -3.0085 1.1384 0.1614, -2.3338 1.2716 0.1614, -2.3656 1.2674 0.1614, -2.3859 1.032 0.1614, -2.3974 1.2716 0.1614, -2.4809 0.9926 0.1614, -2.427 1.2839 0.1614, -2.4524 1.3034 0.1614, -2.4719 1.3288 0.1614, -2.3042 1.2839 0.1614, -2.2788 1.3034 0.1614, -2.2592 1.3288 0.1614, -2.8846 -1.1451 0.1614, -2.9356 -1.1384 0.1614, -3.0085 -1.1384 0.1614, -2.7387 1.3353 0.1614, -2.7387 1.6547 0.1614, -2.4884 1.6547 0.1614, -2.2428 1.6547 0.1614, -1.9912 1.6547 0.1614, -2.2428 1.3902 0.1614, -2.247 1.3584 0.1614, -2.7651 1.2368 0.1614, -2.7455 1.2843 0.1614, -2.4842 1.3584 0.1614, -2.4884 1.3902 0.1614, -3.0543 -1.133 0.1614, -3.0976 -1.1171 0.1614, -3.1361 -1.0915 0.1614, -3.1675 -1.0577 0.1614, -3.1901 -1.0174 0.1614, -3.4626 -0.4585 0.0, -3.4626 0.4585 0.0, -3.4114 -0.5159 0.0359, -3.4114 0.5159 0.0359, -3.3661 -0.5963 0.0676, -3.3661 0.5963 0.0676, -3.551 0.397 0.0, -3.551 -0.397 0.0, -3.6377 -0.3652 0.0, -3.4742 -0.4482 0.0, -3.4742 0.4482 0.0, -5.0374 -0.3543 0.0, -5.0374 0.3543 0.0, -3.7293 -0.3543 0.0, -3.7293 0.3543 0.0, -3.6377 0.3652 0.0, -5.0374 -0.3543 0.0787, -5.0374 0.3543 0.0787, -3.4874 0.4374 0.0787, -3.551 0.397 0.0787, -3.4874 -0.4374 0.0787, -3.6377 0.3652 0.0787, -3.551 -0.397 0.0787, -3.7293 0.3543 0.0787, -3.7293 -0.3543 0.0787, -3.6377 -0.3652 0.0787, -3.4114 0.5159 0.132, -3.2569 -0.8576 0.2402, -3.3661 0.5963 0.1637, -3.2569 0.8576 0.2402, -3.4742 0.4482 0.088, -3.4742 -0.4482 0.088, -3.4114 -0.5159 0.132, -3.3661 -0.5963 0.1637, -3.1901 1.0174 0.2402, -2.6643 0.7536 0.2402, -1.3564 1.4974 0.2402, -1.3537 1.5178 0.2402, -1.3537 1.6547 0.2402, -1.3642 1.4785 0.2402, -1.3767 1.4621 0.2402, -1.393 1.4496 0.2402, -1.9912 1.4391 0.2402, -2.5624 0.9301 0.2402, -2.4809 0.9926 0.2402, -1.412 -1.4418 0.2402, -1.393 -1.4496 0.2402, -1.3767 -1.4621 0.2402, -1.3642 -1.4785 0.2402, -1.3537 -1.6547 0.2402, -1.3537 -1.5178 0.2402, -1.3564 -1.4974 0.2402, -2.8846 1.1451 0.2402, -2.9356 1.1384 0.2402, -2.284 -1.0454 0.2402, -1.9912 -1.4391 0.2402, -1.4324 -1.4391 0.2402, -2.4524 -1.3034 0.2402, -2.8372 -1.1648 0.2402, -2.8846 -1.1451 0.2402, -2.3338 -1.2716 0.2402, -2.3656 -1.2674 0.2402, -2.3859 -1.032 0.2402, -2.3974 -1.2716 0.2402, -2.4809 -0.9926 0.2402, -2.427 -1.2839 0.2402, -2.5624 -0.9301 0.2402, -2.625 -0.8485 0.2402, -2.3042 -1.2839 0.2402, -2.2788 -1.3034 0.2402, -2.2592 -1.3288 0.2402, -2.2428 -1.7334 0.2402, -1.9912 -1.7334 0.2402, -2.2428 -1.3902 0.2402, -2.247 -1.3584 0.2402, -2.3859 1.032 0.2402, -2.284 1.0454 0.2402, -1.4324 1.4391 0.2402, -1.412 1.4418 0.2402, -2.9356 -1.1384 0.2402, -3.1901 -1.0174 0.2402, -3.0085 -1.1384 0.2402, -2.7387 -1.3353 0.2402, -2.7387 -1.7334 0.2402, -2.4884 -1.7334 0.2402, -2.7964 -1.1961 0.2402, -2.7651 -1.2368 0.2402, -2.4719 -1.3288 0.2402, -2.4842 -1.3584 0.2402, -2.7455 -1.2843 0.2402, -2.4884 -1.3902 0.2402, -2.6643 -0.7536 0.2402, -2.6777 -0.6517 0.2402, -2.6777 0.6517 0.2402, -2.247 1.3584 0.2402, -2.2592 1.3288 0.2402, -2.2788 1.3034 0.2402, -2.3656 1.2674 0.2402, -2.625 0.8485 0.2402, -2.3338 1.2716 0.2402, -2.3042 1.2839 0.2402, -3.1361 -1.0915 0.2402, -3.0976 -1.1171 0.2402, -3.0543 -1.133 0.2402, -2.3974 1.2716 0.2402, -2.427 1.2839 0.2402, -2.4524 1.3034 0.2402, -3.0085 1.1384 0.2402, -3.0543 1.133 0.2402, -3.0976 1.1171 0.2402, -1.9912 1.7334 0.2402, -2.2428 1.7334 0.2402, -2.2428 1.3902 0.2402, -2.8372 1.1648 0.2402, -2.7964 1.1961 0.2402, -2.4719 1.3288 0.2402, -3.1361 1.0915 0.2402, -3.1675 1.0577 0.2402, -3.1675 -1.0577 0.2402, -2.4884 1.7334 0.2402, -2.7387 1.7334 0.2402, -2.4884 1.3902 0.2402, -2.7387 1.3353 0.2402, -2.4842 1.3584 0.2402, -2.7455 1.2843 0.2402, -2.7651 1.2368 0.2402, -1.9912 -1.6547 0.0039, -1.9912 -1.7334 0.0039, -2.7387 -1.6547 0.0039, -2.7387 -1.7334 0.0039, -1.9912 1.6547 0.0039, -1.9912 1.7334 0.0039, -2.7387 1.6547 0.0039, -2.7387 1.7334 0.0039, -2.2428 1.6547 0.0039, -2.2428 1.7334 0.0039, -2.4884 1.6547 0.0039, -2.4884 1.7334 0.0039, -2.2428 -1.6547 0.0039, -2.2428 -1.7334 0.0039, -2.4884 -1.6547 0.0039, -2.4884 -1.7334 0.0039
            ]
        }
        coordIndex [
            0,1,2,-1,2,1,3,-1,2,3,4,-1,5,6,4,-1,4,6,7,-1,7,8,4,-1,4,8,9,-1,4,9,2,-1,10,11,12,-1,12,13,10,-1,10,13,14,-1,10,14,15,-1,16,17,10,-1,10,17,18,-1,10,18,11,-1,19,20,21,-1,21,20,22,-1,22,23,21,-1,21,23,6,-1,21,6,10,-1,10,6,5,-1,10,5,16,-1,24,25,21,-1,21,25,26,-1,21,26,19,-1,15,27,10,-1,10,27,28,-1,10,28,21,-1,21,28,29,-1,21,29,24,-1,30,31,32,-1,30,33,31,-1,31,33,34,-1,31,34,35,-1,36,37,32,-1,32,37,38,-1,32,38,39,-1,39,40,32,-1,32,40,41,-1,32,41,30,-1,42,43,44,-1,44,43,45,-1,44,45,32,-1,32,45,46,-1,32,46,36,-1,47,48,44,-1,44,48,49,-1,44,49,42,-1,50,51,47,-1,47,51,52,-1,47,52,48,-1,53,54,2,-1,53,2,55,-1,55,2,56,-1,56,2,57,-1,56,57,58,-1,54,59,2,-1,2,59,60,-1,2,60,61,-1,62,0,63,-1,63,0,2,-1,63,2,64,-1,64,2,61,-1,62,65,0,-1,0,65,66,-1,0,66,67,-1,67,68,0,-1,0,68,69,-1,0,69,70,-1,70,71,0,-1,0,71,72,-1,0,72,73,-1,73,72,74,-1,73,74,50,-1,50,74,75,-1,50,75,51,-1,76,77,78,-1,78,77,79,-1,78,79,80,-1,79,81,80,-1,80,81,82,-1,80,82,83,-1,83,82,84,-1,83,84,57,-1,57,84,85,-1,57,85,58,-1,86,87,88,-1,88,87,89,-1,88,89,90,-1,90,91,88,-1,88,91,92,-1,88,92,78,-1,78,92,93,-1,78,93,76,-1,94,95,96,-1,96,97,94,-1,94,97,98,-1,94,98,88,-1,88,98,99,-1,88,99,86,-1,28,27,100,-1,100,27,101,-1,102,103,104,-1,105,106,107,-1,108,109,110,-1,110,109,111,-1,112,113,114,-1,114,113,115,-1,114,115,116,-1,112,117,113,-1,113,117,118,-1,113,118,119,-1,119,120,113,-1,113,120,121,-1,113,121,109,-1,109,121,122,-1,109,122,111,-1,123,124,115,-1,115,124,125,-1,115,125,116,-1,123,115,107,-1,107,115,126,-1,107,126,105,-1,106,105,127,-1,127,105,128,-1,127,128,129,-1,130,131,132,-1,130,132,133,-1,133,132,134,-1,133,134,135,-1,135,136,133,-1,133,136,137,-1,133,137,138,-1,139,140,141,-1,138,142,133,-1,133,142,143,-1,133,143,144,-1,140,145,141,-1,141,145,146,-1,141,146,147,-1,147,148,141,-1,141,148,149,-1,141,149,128,-1,128,149,150,-1,128,150,129,-1,103,102,130,-1,130,102,151,-1,130,151,131,-1,152,153,154,-1,154,155,152,-1,152,155,156,-1,152,156,104,-1,104,156,157,-1,104,157,102,-1,158,159,160,-1,158,160,161,-1,159,162,160,-1,160,162,163,-1,160,163,152,-1,152,163,164,-1,152,164,153,-1,165,166,167,-1,167,168,165,-1,165,168,169,-1,165,169,160,-1,160,169,170,-1,160,170,161,-1,171,133,141,-1,141,133,144,-1,141,144,139,-1,171,172,133,-1,133,172,173,-1,133,173,174,-1,174,173,175,-1,175,173,176,-1,176,173,177,-1,176,177,178,-1,179,180,181,-1,181,182,179,-1,179,182,183,-1,179,183,184,-1,179,185,186,-1,186,187,179,-1,179,187,188,-1,179,188,180,-1,189,190,191,-1,191,190,192,-1,191,192,193,-1,193,194,191,-1,191,194,178,-1,191,178,179,-1,179,178,177,-1,179,177,185,-1,195,196,191,-1,191,196,197,-1,191,197,189,-1,184,100,179,-1,179,100,101,-1,179,101,191,-1,191,101,198,-1,191,198,195,-1,199,200,166,-1,166,200,201,-1,166,201,202,-1,203,204,205,-1,199,166,206,-1,206,166,165,-1,206,165,207,-1,208,209,203,-1,203,209,210,-1,203,210,204,-1,211,212,108,-1,108,212,213,-1,108,213,214,-1,215,109,216,-1,216,109,108,-1,216,108,217,-1,217,108,214,-1,218,219,203,-1,203,219,220,-1,203,220,208,-1,221,222,223,-1,223,222,224,-1,225,226,108,-1,108,226,227,-1,108,227,211,-1,210,228,204,-1,204,228,229,-1,204,229,230,-1,230,229,231,-1,232,233,234,-1,234,233,223,-1,234,223,235,-1,235,223,224,-1,202,236,166,-1,166,236,237,-1,166,237,238,-1,238,237,203,-1,238,203,239,-1,239,203,205,-1,240,241,242,-1,242,241,243,-1,242,243,244,-1,244,243,245,-1,244,245,246,-1,221,223,247,-1,247,223,248,-1,247,248,231,-1,248,249,231,-1,231,249,250,-1,231,250,230,-1,230,250,251,-1,230,251,252,-1,253,245,254,-1,254,245,255,-1,254,255,256,-1,256,255,257,-1,256,257,252,-1,253,258,245,-1,245,258,259,-1,245,259,260,-1,260,261,245,-1,245,261,262,-1,245,262,246,-1,263,225,264,-1,264,225,265,-1,264,265,266,-1,266,265,267,-1,266,267,268,-1,268,267,241,-1,268,241,269,-1,269,241,240,-1,269,240,270,-1,263,271,225,-1,225,271,272,-1,225,272,226,-1,226,272,273,-1,251,274,252,-1,252,274,275,-1,252,275,276,-1,277,278,279,-1,280,281,282,-1,282,281,226,-1,282,226,283,-1,283,226,273,-1,240,284,270,-1,270,284,285,-1,270,285,286,-1,286,285,277,-1,286,277,287,-1,287,277,279,-1,276,288,252,-1,252,288,289,-1,252,289,290,-1,290,291,252,-1,252,291,292,-1,252,292,256,-1,293,294,295,-1,295,294,296,-1,256,297,254,-1,254,297,295,-1,254,295,298,-1,298,295,296,-1,299,300,301,-1,293,302,294,-1,294,302,300,-1,294,300,303,-1,303,300,299,-1,304,305,306,-1,306,305,307,-1,306,307,301,-1,301,307,308,-1,301,308,299,-1,304,309,305,-1,305,309,310,-1,311,312,313,-1,313,312,314,-1,313,314,315,-1,310,309,316,-1,316,309,317,-1,316,317,314,-1,314,317,318,-1,314,318,315,-1,319,320,321,-1,321,320,322,-1,323,311,313,-1,313,324,323,-1,323,324,325,-1,323,325,319,-1,319,325,326,-1,319,326,320,-1,327,322,328,-1,329,95,330,-1,330,95,94,-1,330,94,331,-1,329,332,95,-1,95,332,333,-1,95,333,334,-1,335,336,337,-1,338,339,35,-1,35,339,340,-1,35,340,341,-1,342,31,343,-1,343,31,35,-1,343,35,344,-1,344,35,341,-1,328,345,346,-1,347,348,35,-1,35,348,349,-1,35,349,338,-1,350,320,351,-1,351,320,352,-1,353,347,354,-1,354,347,355,-1,354,355,356,-1,356,355,357,-1,356,357,358,-1,358,357,359,-1,360,320,359,-1,359,320,350,-1,359,350,358,-1,353,361,347,-1,347,361,362,-1,347,362,348,-1,348,362,363,-1,364,365,366,-1,366,365,348,-1,366,348,367,-1,367,348,363,-1,337,368,335,-1,335,368,369,-1,335,369,370,-1,370,369,95,-1,370,95,371,-1,371,95,334,-1,352,320,372,-1,372,320,373,-1,372,373,374,-1,375,376,377,-1,351,378,350,-1,350,378,379,-1,350,379,380,-1,380,379,381,-1,379,382,381,-1,381,382,375,-1,381,375,383,-1,383,375,377,-1,360,384,320,-1,320,384,385,-1,320,385,322,-1,322,385,386,-1,322,386,328,-1,387,388,335,-1,335,388,389,-1,335,389,336,-1,390,391,392,-1,392,391,336,-1,392,336,393,-1,393,336,389,-1,394,395,396,-1,390,397,391,-1,391,397,398,-1,391,398,399,-1,346,400,328,-1,328,400,401,-1,328,401,402,-1,403,404,335,-1,335,404,405,-1,335,405,387,-1,345,328,406,-1,406,328,391,-1,406,391,407,-1,407,391,399,-1,407,399,408,-1,402,409,328,-1,328,409,410,-1,328,410,327,-1,374,373,396,-1,396,373,411,-1,396,411,394,-1,412,413,414,-1,414,413,415,-1,414,415,416,-1,416,415,417,-1,416,417,408,-1,408,417,418,-1,408,418,407,-1,342,207,31,-1,31,207,165,-1,31,165,32,-1,32,165,160,-1,32,160,44,-1,44,160,152,-1,44,152,47,-1,47,152,104,-1,47,104,50,-1,50,104,103,-1,50,103,73,-1,73,103,130,-1,73,130,0,-1,0,130,133,-1,0,133,1,-1,1,133,174,-1,206,207,343,-1,343,207,342,-1,349,348,237,-1,237,348,203,-1,203,348,218,-1,218,348,365,-1,218,365,419,-1,419,365,420,-1,421,422,233,-1,233,422,376,-1,233,376,223,-1,223,376,375,-1,372,374,275,-1,275,374,276,-1,292,373,256,-1,256,373,320,-1,256,320,297,-1,297,320,326,-1,317,306,318,-1,318,306,301,-1,318,301,315,-1,315,301,300,-1,315,300,313,-1,313,300,302,-1,313,302,324,-1,324,302,293,-1,324,293,325,-1,293,295,325,-1,325,295,297,-1,325,297,326,-1,306,317,304,-1,304,317,309,-1,305,310,307,-1,307,310,316,-1,303,323,294,-1,294,323,319,-1,294,319,296,-1,296,319,321,-1,296,321,298,-1,307,316,308,-1,308,316,314,-1,308,314,299,-1,299,314,312,-1,299,312,303,-1,303,312,311,-1,303,311,323,-1,9,171,2,-1,2,171,141,-1,2,141,57,-1,57,141,128,-1,57,128,83,-1,83,128,105,-1,83,105,80,-1,80,105,126,-1,80,126,78,-1,78,126,115,-1,78,115,88,-1,88,115,113,-1,88,113,94,-1,94,113,109,-1,94,109,331,-1,331,109,215,-1,330,331,216,-1,216,331,215,-1,227,226,370,-1,370,226,335,-1,423,424,281,-1,281,424,403,-1,281,403,226,-1,226,403,335,-1,277,415,278,-1,278,415,413,-1,278,413,425,-1,425,413,426,-1,246,262,346,-1,346,262,400,-1,298,321,254,-1,254,321,322,-1,254,322,253,-1,253,322,327,-1,282,405,280,-1,280,405,404,-1,280,404,427,-1,427,404,428,-1,287,414,286,-1,286,414,416,-1,286,416,270,-1,270,416,408,-1,270,408,269,-1,269,408,399,-1,269,399,268,-1,268,399,398,-1,268,398,266,-1,266,398,397,-1,266,397,264,-1,264,397,390,-1,264,390,263,-1,263,390,392,-1,263,392,271,-1,271,392,393,-1,271,393,272,-1,272,393,389,-1,272,389,273,-1,273,389,388,-1,273,388,283,-1,283,388,387,-1,283,387,282,-1,282,387,405,-1,429,430,279,-1,279,430,412,-1,279,412,287,-1,287,412,414,-1,220,366,208,-1,208,366,367,-1,208,367,209,-1,209,367,363,-1,209,363,210,-1,210,363,362,-1,210,362,228,-1,228,362,361,-1,228,361,229,-1,229,361,353,-1,229,353,231,-1,231,353,354,-1,231,354,247,-1,247,354,356,-1,247,356,221,-1,221,356,358,-1,221,358,222,-1,222,358,350,-1,222,350,224,-1,224,350,380,-1,224,380,235,-1,235,380,381,-1,235,381,234,-1,234,381,383,-1,431,432,219,-1,219,432,364,-1,219,364,220,-1,220,364,366,-1,234,383,232,-1,232,383,377,-1,232,377,433,-1,433,377,434,-1,
        ]
    }
}
Shape{
    appearance Appearance {
        material  Material 	{
            diffuseColor 0.5019607843137255 0.25098039215686274 0.0
            specularColor 0.44313725490196076 0.2196078431372549 0.0
            ambientIntensity 0.2974
            transparency 0.0
            shininess 0.5
        }
    }
    geometry IndexedFaceSet {
        ccw TRUE
        solid FALSE
        coord DEF co Coordinate {
            point [
                -1.3537 -1.5178 0.1614, -1.3537 -1.5178 0.2402, -1.3564 -1.4974 0.1614, -1.3564 -1.4974 0.2402, -1.3642 -1.4785 0.1614, -1.3642 -1.4785 0.2402, -1.3767 -1.4621 0.1614, -1.3767 -1.4621 0.2402, -1.393 -1.4496 0.1614, -1.393 -1.4496 0.2402, -1.412 -1.4418 0.1614, -1.412 -1.4418 0.2402, -1.4324 -1.4391 0.1614, -1.4324 -1.4391 0.2402, -1.4324 1.4391 0.1614, -1.4324 1.4391 0.2402, -1.412 1.4418 0.1614, -1.412 1.4418 0.2402, -1.393 1.4496 0.1614, -1.393 1.4496 0.2402, -1.3767 1.4621 0.1614, -1.3767 1.4621 0.2402, -1.3642 1.4785 0.1614, -1.3642 1.4785 0.2402, -1.3564 1.4974 0.1614, -1.3564 1.4974 0.2402, -1.3537 1.5178 0.1614, -1.3537 1.5178 0.2402
            ]
        }
        coordIndex [
            0,1,2,-1,2,1,3,-1,2,3,4,-1,4,3,5,-1,4,5,6,-1,6,5,7,-1,6,7,8,-1,8,7,9,-1,8,9,10,-1,10,9,11,-1,10,11,12,-1,12,11,13,-1,14,15,16,-1,16,15,17,-1,16,17,18,-1,18,17,19,-1,18,19,20,-1,20,19,21,-1,20,21,22,-1,22,21,23,-1,22,23,24,-1,24,23,25,-1,24,25,26,-1,26,25,27,-1,
        ]
    }
}
Shape{
    appearance Appearance {
        material  Material 	{
            diffuseColor 1.0 1.0 0.0
            specularColor 0.5019607843137255 0.5019607843137255 0.0
            ambientIntensity 0.886
            transparency 0.0
            shininess 0.5
        }
    }
    geometry IndexedFaceSet {
        ccw TRUE
        solid FALSE
        coord DEF co Coordinate {
            point [
                -2.9356 1.1384 0.1614, -2.9356 1.1384 0.2402, -2.8846 1.1451 0.1614, -2.8846 1.1451 0.2402, -2.8372 1.1648 0.1614, -2.8372 1.1648 0.2402, -2.7964 1.1961 0.1614, -2.7964 1.1961 0.2402, -2.7651 1.2368 0.1614, -2.7651 1.2368 0.2402, -2.7455 1.2843 0.1614, -2.7455 1.2843 0.2402, -2.7387 1.3353 0.1614, -2.7387 1.3353 0.2402, -2.7387 -1.3353 0.1614, -2.7387 -1.3353 0.2402, -2.7455 -1.2843 0.1614, -2.7455 -1.2843 0.2402, -2.7651 -1.2368 0.1614, -2.7651 -1.2368 0.2402, -2.7964 -1.1961 0.1614, -2.7964 -1.1961 0.2402, -2.8372 -1.1648 0.1614, -2.8372 -1.1648 0.2402, -2.8846 -1.1451 0.1614, -2.8846 -1.1451 0.2402, -2.9356 -1.1384 0.1614, -2.9356 -1.1384 0.2402, -3.1901 -1.0174 0.2402, -3.1901 -1.0174 0.1614, -3.1675 -1.0577 0.1614, -3.1675 -1.0577 0.2402, -3.1361 -1.0915 0.1614, -3.1361 -1.0915 0.2402, -3.0976 -1.1171 0.1614, -3.0976 -1.1171 0.2402, -3.0543 -1.133 0.1614, -3.0543 -1.133 0.2402, -3.0085 -1.1384 0.1614, -3.0085 -1.1384 0.2402, -3.0085 1.1384 0.2402, -3.0085 1.1384 0.1614, -3.0543 1.133 0.1614, -3.0543 1.133 0.2402, -3.0976 1.1171 0.1614, -3.0976 1.1171 0.2402, -3.1361 1.0915 0.1614, -3.1361 1.0915 0.2402, -3.1675 1.0577 0.1614, -3.1675 1.0577 0.2402, -3.1901 1.0174 0.1614, -3.1901 1.0174 0.2402, 0.3093 1.6547 0.8014, 0.2466 1.6547 0.8507, 0.3473 1.6513 0.8369, 0.2847 1.6513 0.886, 0.3834 1.6401 0.8724, 0.3214 1.6413 0.9215, 0.3959 1.6362 0.8848, 0.3399 1.6333 0.9401, 0.4239 1.6211 0.9136, 0.3878 1.6019 0.99, 0.516 1.261 1.1397, 0.5779 1.261 1.091, 0.5139 1.3125 1.137, 0.5758 1.3123 1.0884, 0.5077 1.3629 1.1292, 0.5696 1.3629 1.0805, 0.4973 1.4118 1.1162, 0.5592 1.4117 1.0676, 0.4829 1.4578 1.0986, 0.5448 1.4578 1.0499, 0.4646 1.5006 1.0767, 0.5265 1.5008 1.0278, 0.4425 1.5394 1.0508, 0.5045 1.5394 1.0021, 0.4169 1.5732 1.0218, 0.4788 1.5734 0.9729, 0.45 1.6019 0.9412, 0.2466 -1.6547 0.8507, 0.3093 -1.6547 0.8014, 0.2848 -1.6513 0.8861, 0.3472 -1.6513 0.8368, 0.3208 -1.6395 0.9214, 0.3837 -1.6413 0.8725, 0.3399 -1.6333 0.9401, 0.3958 -1.6352 0.8849, 0.4238 -1.6212 0.9134, 0.3878 -1.6019 0.99, 0.45 -1.6019 0.9412, 0.4168 -1.5734 1.0217, 0.4789 -1.5732 0.9731, 0.4425 -1.5394 1.0508, 0.5045 -1.5394 1.0021, 0.4645 -1.5008 1.0765, 0.5266 -1.5006 1.028, 0.4829 -1.4578 1.0986, 0.5448 -1.4578 1.0499, 0.4973 -1.4117 1.1162, 0.5592 -1.4118 1.0675, 0.5077 -1.3629 1.1292, 0.5696 -1.3629 1.0805, 0.5139 -1.3123 1.1371, 0.5758 -1.3125 1.0884, 0.516 -1.261 1.1397, 0.5779 -1.261 1.091, 0.1223 -1.1788 0.7456, 0.1223 -1.1788 0.6463, 0.1206 -1.2047 0.7442, 0.1206 -1.2047 0.645, 0.1156 -1.2298 0.7403, 0.1156 -1.2298 0.6413, 0.1072 -1.2545 0.7338, 0.1072 -1.2545 0.6351, 0.0959 -1.2772 0.7251, 0.0959 -1.2772 0.6269, 0.0814 -1.299 0.7141, 0.0814 -1.2989 0.6164, 0.0646 -1.318 0.7016, -0.0236 -1.369 0.5453, 0.0239 -1.3493 0.6721, 0.0239 -1.3493 0.5764, 0.0646 -1.318 0.6045, -0.0746 -1.3757 0.5135, -0.0746 -1.3757 0.6062, -0.0318 -1.37 0.5402, -0.0739 -1.3756 0.6066, -0.0236 -1.369 0.6394, 0.1223 1.1788 0.6463, 0.1223 1.1788 0.7456, -0.0746 1.3757 0.6062, -0.0746 1.3757 0.5135, -0.0739 1.3756 0.6066, -0.0317 1.3708 0.5401, -0.0308 1.3707 0.6346, 0.1028 1.2642 0.6319, 0.0794 1.3015 0.7125, 0.0794 1.3015 0.6149, 0.0482 1.3327 0.6895, 0.0482 1.3327 0.593, 0.0109 1.3562 0.663, 0.0109 1.3562 0.5677, -0.0308 1.3707 0.5407, 0.1174 1.2226 0.6426, 0.1112 1.2439 0.7369, 0.1028 1.2642 0.7304, 0.121 1.2011 0.6454, 0.121 1.201 0.7446, 0.1174 1.2226 0.7417, -0.6529 1.3757 0.3413, -0.6529 1.3757 0.2591, -0.552 1.3757 0.3743, -0.5258 1.3757 0.3001, -0.3064 1.3757 0.4769, -0.272 1.3757 0.4061, -0.8093 1.2984 0.2997, -0.8093 1.2984 0.219, -0.8076 1.3002 0.3001, -0.7899 1.3185 0.2234, -0.778 1.3308 0.3071, -0.778 1.3308 0.2261, -0.7402 1.3553 0.2354, -0.7402 1.3553 0.3167, -0.6977 1.3705 0.2465, -0.6977 1.3705 0.3282, -1.1847 1.0454 0.245, -1.1847 1.0454 0.1661, -1.1296 1.063 0.2492, -1.1296 1.063 0.1702, -1.0767 1.085 0.2545, -1.0768 1.0854 0.1754, -1.0699 1.0878 0.2552, -1.061 1.0921 0.177, -1.0222 1.1126 0.2611, -0.9763 1.1411 0.1881, -0.8462 1.2539 0.2111, -0.8462 1.2539 0.2916, -0.8864 1.2129 0.2032, -0.8864 1.2129 0.2834, -0.9297 1.1753 0.1955, -0.9297 1.1753 0.2754, -0.9763 1.1411 0.2677, -0.8093 -1.2984 0.2997, -0.8093 -1.2984 0.219, -0.8463 -1.2539 0.2916, -0.8463 -1.2539 0.2111, -0.8864 -1.2129 0.2834, -0.8864 -1.2129 0.2032, -0.9297 -1.1753 0.2754, -0.9297 -1.1753 0.1955, -0.9763 -1.1411 0.2677, -0.9763 -1.1411 0.1881, -1.1847 -1.0454 0.1661, -1.1847 -1.0454 0.245, -1.1296 -1.0629 0.1702, -1.1296 -1.0629 0.2492, -1.0766 -1.0848 0.1752, -1.0766 -1.0848 0.2545, -1.061 -1.0921 0.177, -1.0699 -1.0882 0.2553, -1.0222 -1.1126 0.2611, -0.778 -1.3308 0.2261, -0.7402 -1.3553 0.3167, -0.7402 -1.3553 0.2354, -0.6977 -1.3705 0.3282, -0.6977 -1.3705 0.2465, -0.6529 -1.3757 0.3413, -0.6529 -1.3757 0.2591, -0.7899 -1.3185 0.2234, -0.8076 -1.3002 0.3001, -0.778 -1.3308 0.3071, -0.3064 -1.3757 0.4769, -0.272 -1.3757 0.4061, -0.552 -1.3757 0.3743, -0.5258 -1.3757 0.3001, -2.284 1.0454 0.2402, -2.284 1.0454 0.1614, -1.3357 1.0454 0.2402, -1.3357 1.0454 0.1614, -2.6777 0.6517 0.2402, -2.6777 0.6517 0.1614, -2.6643 0.7536 0.2402, -2.6643 0.7536 0.1614, -2.625 0.8485 0.2402, -2.625 0.8485 0.1614, -2.5624 0.9301 0.2402, -2.5624 0.9301 0.1614, -2.4809 0.9926 0.2402, -2.4809 0.9926 0.1614, -2.3859 1.032 0.2402, -2.3859 1.032 0.1614, -2.6777 -0.6517 0.1614, -2.6777 -0.6517 0.2402, -2.284 -1.0454 0.2402, -2.284 -1.0454 0.1614, -2.3859 -1.032 0.2402, -2.3859 -1.032 0.1614, -2.4809 -0.9926 0.2402, -2.4809 -0.9926 0.1614, -2.5624 -0.9301 0.2402, -2.5624 -0.9301 0.1614, -2.625 -0.8485 0.2402, -2.625 -0.8485 0.1614, -2.6643 -0.7536 0.2402, -2.6643 -0.7536 0.1614, -1.3357 -1.0454 0.2402, -1.3357 -1.0454 0.1614, -1.9912 -1.7334 0.0039, -2.2428 -1.7334 0.0039, -1.9912 -1.6547 0.0039, -2.2428 -1.6547 0.0039, -1.9912 -1.7334 0.2402, -2.2428 -1.7334 0.2402, -1.9912 -1.6547 0.1614, -2.2428 -1.6547 0.1614, -2.4884 -1.7334 0.0039, -2.7387 -1.7334 0.0039, -2.4884 -1.6547 0.0039, -2.7387 -1.6547 0.0039, -2.4884 -1.7334 0.2402, -2.7387 -1.7334 0.2402, -2.4884 -1.6547 0.1614, -2.7387 -1.6547 0.1614, -2.2428 1.7334 0.0039, -1.9912 1.7334 0.0039, -2.2428 1.6547 0.0039, -1.9912 1.6547 0.0039, -1.9912 1.7334 0.2402, -2.2428 1.7334 0.2402, -2.2428 1.6547 0.1614, -1.9912 1.6547 0.1614, -2.7387 1.7334 0.0039, -2.4884 1.7334 0.0039, -2.7387 1.6547 0.0039, -2.4884 1.6547 0.0039, -2.4884 1.7334 0.2402, -2.7387 1.7334 0.2402, -2.7387 1.6547 0.1614, -2.4884 1.6547 0.1614, 4.687 0.689 0.0591, 3.8799 0.689 0.0591, 4.687 -0.689 0.0591, 3.8799 -0.689 0.0591, 4.687 0.689 0.0, 4.687 -0.689 0.0, 3.8209 0.689 0.0, 3.8209 -0.689 0.0, 3.8209 0.689 0.9646, 3.8209 -0.689 0.9646, 2.9153 0.689 0.9646, 2.9153 -0.689 0.9646, 2.9153 0.689 0.374, 2.9153 -0.689 0.374, 2.8563 0.689 0.374, 2.8563 -0.689 0.374, 2.8563 0.689 1.0236, 2.8563 -0.689 1.0236, 3.8799 0.689 1.0236, 3.8799 -0.689 1.0236
            ]
        }
        coordIndex [
            0,1,2,-1,2,1,3,-1,2,3,4,-1,4,3,5,-1,4,5,6,-1,6,5,7,-1,6,7,8,-1,8,7,9,-1,8,9,10,-1,10,9,11,-1,10,11,12,-1,12,11,13,-1,14,15,16,-1,16,15,17,-1,16,17,18,-1,18,17,19,-1,18,19,20,-1,20,19,21,-1,20,21,22,-1,22,21,23,-1,22,23,24,-1,24,23,25,-1,24,25,26,-1,26,25,27,-1,28,29,30,-1,28,30,31,-1,31,30,32,-1,31,32,33,-1,33,32,34,-1,33,34,35,-1,35,34,36,-1,35,36,37,-1,37,36,38,-1,37,38,39,-1,40,41,42,-1,40,42,43,-1,43,42,44,-1,43,44,45,-1,45,44,46,-1,45,46,47,-1,47,46,48,-1,47,48,49,-1,49,48,50,-1,49,50,51,-1,52,53,54,-1,54,53,55,-1,54,55,56,-1,56,55,57,-1,56,57,58,-1,58,57,59,-1,58,59,60,-1,60,59,61,-1,62,63,64,-1,64,63,65,-1,64,65,66,-1,66,65,67,-1,66,67,68,-1,68,67,69,-1,68,69,70,-1,70,69,71,-1,70,71,72,-1,72,71,73,-1,72,73,74,-1,74,73,75,-1,74,75,76,-1,76,75,77,-1,76,77,61,-1,61,77,78,-1,61,78,60,-1,79,80,81,-1,81,80,82,-1,81,82,83,-1,83,82,84,-1,83,84,85,-1,84,86,85,-1,85,86,87,-1,85,87,88,-1,88,87,89,-1,88,89,90,-1,90,89,91,-1,90,91,92,-1,92,91,93,-1,92,93,94,-1,94,93,95,-1,94,95,96,-1,96,95,97,-1,96,97,98,-1,98,97,99,-1,98,99,100,-1,100,99,101,-1,100,101,102,-1,102,101,103,-1,102,103,104,-1,104,103,105,-1,106,107,108,-1,108,107,109,-1,108,109,110,-1,110,109,111,-1,110,111,112,-1,112,111,113,-1,112,113,114,-1,114,113,115,-1,114,115,116,-1,116,115,117,-1,116,117,118,-1,119,120,121,-1,121,120,118,-1,121,118,122,-1,122,118,117,-1,123,124,125,-1,125,124,126,-1,125,126,119,-1,119,126,127,-1,119,127,120,-1,107,106,128,-1,128,106,129,-1,130,131,132,-1,132,131,133,-1,132,133,134,-1,135,136,137,-1,137,136,138,-1,137,138,139,-1,139,138,140,-1,139,140,141,-1,141,140,134,-1,141,134,142,-1,142,134,133,-1,143,144,135,-1,135,144,145,-1,135,145,136,-1,128,129,146,-1,146,129,147,-1,146,147,143,-1,143,147,148,-1,143,148,144,-1,149,150,151,-1,151,150,152,-1,151,152,153,-1,153,152,154,-1,153,154,130,-1,130,154,131,-1,155,156,157,-1,157,156,158,-1,157,158,159,-1,158,160,159,-1,159,160,161,-1,159,161,162,-1,162,161,163,-1,162,163,164,-1,164,163,150,-1,164,150,149,-1,165,166,167,-1,167,166,168,-1,167,168,169,-1,169,168,170,-1,169,170,171,-1,171,170,172,-1,171,172,173,-1,173,172,174,-1,156,155,175,-1,175,155,176,-1,175,176,177,-1,177,176,178,-1,177,178,179,-1,179,178,180,-1,179,180,174,-1,174,180,181,-1,174,181,173,-1,182,183,184,-1,184,183,185,-1,184,185,186,-1,186,185,187,-1,186,187,188,-1,188,187,189,-1,188,189,190,-1,190,189,191,-1,192,193,194,-1,194,193,195,-1,194,195,196,-1,196,195,197,-1,196,197,198,-1,198,197,199,-1,198,199,191,-1,191,199,200,-1,191,200,190,-1,201,202,203,-1,203,202,204,-1,203,204,205,-1,205,204,206,-1,205,206,207,-1,183,182,208,-1,208,182,209,-1,208,209,201,-1,201,209,210,-1,201,210,202,-1,124,123,211,-1,211,123,212,-1,211,212,213,-1,213,212,214,-1,213,214,206,-1,206,214,207,-1,215,216,217,-1,217,216,218,-1,217,218,165,-1,165,218,166,-1,219,220,221,-1,221,220,222,-1,221,222,223,-1,223,222,224,-1,223,224,225,-1,225,224,226,-1,225,226,227,-1,227,226,228,-1,227,228,229,-1,229,228,230,-1,229,230,215,-1,215,230,216,-1,220,219,231,-1,231,219,232,-1,233,234,235,-1,235,234,236,-1,235,236,237,-1,237,236,238,-1,237,238,239,-1,239,238,240,-1,239,240,241,-1,241,240,242,-1,241,242,243,-1,243,242,244,-1,243,244,232,-1,232,244,231,-1,193,192,245,-1,245,192,246,-1,245,246,233,-1,233,246,234,-1,247,248,249,-1,249,248,250,-1,247,251,248,-1,248,251,252,-1,249,250,253,-1,253,250,254,-1,255,256,257,-1,257,256,258,-1,255,259,256,-1,256,259,260,-1,257,258,261,-1,261,258,262,-1,263,264,265,-1,265,264,266,-1,267,264,268,-1,268,264,263,-1,265,266,269,-1,269,266,270,-1,271,272,273,-1,273,272,274,-1,275,272,276,-1,276,272,271,-1,273,274,277,-1,277,274,278,-1,279,280,281,-1,281,280,282,-1,283,279,284,-1,284,279,281,-1,285,283,286,-1,286,283,284,-1,287,285,288,-1,288,285,286,-1,289,287,290,-1,290,287,288,-1,291,289,292,-1,292,289,290,-1,293,291,294,-1,294,291,292,-1,295,293,296,-1,296,293,294,-1,297,295,298,-1,298,295,296,-1,280,297,282,-1,282,297,298,-1,291,293,289,-1,289,293,295,-1,289,295,287,-1,287,295,297,-1,287,297,285,-1,285,297,280,-1,285,280,283,-1,283,280,279,-1,284,281,286,-1,286,281,282,-1,286,282,288,-1,288,282,298,-1,288,298,290,-1,290,298,296,-1,290,296,292,-1,292,296,294,-1,
        ]
    }
}
Shape{
    appearance Appearance {
        material  Material 	{
            diffuseColor 0.5019607843137255 0.5019607843137255 0.5019607843137255
            specularColor 0.25098039215686274 0.25098039215686274 0.25098039215686274
            ambientIntensity 0.502
            transparency 0.0
            shininess 0.5
        }
    }
    geometry IndexedFaceSet {
        ccw TRUE
        solid FALSE
        coord DEF co Coordinate {
            point [
                2.9416 1.0104 1.0236, 3.0124 0.689 1.0236, 3.8209 0.689 1.0236, 3.9783 0.5906 1.0236, 4.2146 0.5906 1.0236, 3.9783 1.1811 1.0236, 4.2146 1.3681 1.0236, 3.8209 1.1811 1.0236, 3.2873 1.3681 1.0236, 2.8099 1.4184 1.0236, 3.1447 1.7438 1.0236, 2.6347 1.8097 1.0236, 2.9684 2.1048 1.0236, 2.4183 2.1798 1.0236, 2.7598 2.4483 1.0236, 2.163 2.5242 1.0236, 2.5206 2.7712 1.0236, 1.872 2.8391 1.0236, 2.253 3.0709 1.0236, 1.872 3.0709 1.0236, 3.1516 -0.5906 0.374, 3.1516 -0.689 0.374, 3.1516 -0.689 0.9449, 3.1516 -0.3526 0.2402, 3.1516 -0.5906 0.2402, 3.1516 0.5906 0.374, 3.1516 0.5906 0.2402, 3.1516 0.3526 0.2402, 3.1516 0.689 0.9449, 3.1516 0.689 0.374, -1.0578 -3.0709 0.0039, -1.4275 -3.0709 0.0039, -1.4275 -2.4415 0.0039, -0.7697 -3.0709 0.0039, -1.0578 -2.4415 0.0039, -3.7293 0.5512 0.0039, -4.0317 0.5512 0.0039, -4.0317 0.9642 0.0039, -4.3407 2.7056 0.0039, -4.0317 3.0583 0.0039, 4.2146 0.5906 0.0039, 3.9783 0.5906 0.0039, 3.9783 0.9642 0.0039, -3.1396 -1.3353 0.0039, -1.9125 -1.5759 0.0039, -2.8175 -1.5759 0.0039, -3.2986 -1.2545 0.0039, -3.2672 -1.2883 0.0039, -4.0317 -2.4415 0.0039, -3.2287 -1.3139 0.0039, -3.1396 -0.9642 0.0039, -1.8548 -0.9642 0.0039, -1.9125 -1.8122 0.0039, -1.8548 -2.4415 0.0039, -2.8175 -1.8122 0.0039, -4.0317 -0.9642 0.0039, -3.4257 -0.9642 0.0039, -3.3212 -1.2143 0.0039, -4.1167 -0.5512 0.0039, -4.0317 -0.5512 0.0039, -3.7293 -0.5512 0.0039, -3.6018 -0.5981 0.0039, -3.5704 -0.6319 0.0039, -3.5477 -0.6722 0.0039, -3.6835 -0.5566 0.0039, -3.6402 -0.5725 0.0039, -5.246 -0.4921 0.0039, -4.1167 -0.4921 0.0039, -5.1665 -0.9638 0.0039, -5.1664 -0.9642 0.0039, -5.0339 -1.431 0.0039, -4.8504 -1.8806 0.0039, -4.0317 -3.0583 0.0039, -4.3407 -2.7056 0.0039, -4.5248 -2.4415 0.0039, -4.6184 -2.3072 0.0039, -1.8548 -3.0709 0.0039, -4.0207 -3.0709 0.0039, -3.1854 -1.3299 0.0039, 2.253 -3.0709 0.0039, 1.2296 -3.0709 0.0039, 2.5206 -2.7712 0.0039, 1.2296 -2.4415 0.0039, 2.7598 -2.4483 0.0039, 3.8209 -0.9642 0.0039, 3.8209 -1.1811 0.0039, 1.2296 -0.9642 0.0039, 3.2873 -1.3681 0.0039, 4.2146 -1.3681 0.0039, 3.9783 -1.1811 0.0039, 4.2146 -0.9642 0.0039, 3.1447 -1.7438 0.0039, 2.9684 -2.1048 0.0039, 2.7639 -2.4415 0.0039, 3.9783 -0.9642 0.0039, 3.9783 -0.5906 0.0039, 4.2146 -0.5906 0.0039, 2.6623 -0.2329 0.0039, 2.6623 -0.3526 0.0039, 3.1767 -0.3526 0.0039, 3.8209 -0.2329 0.0039, 3.1767 -0.2329 0.0039, 3.1767 0.1656 0.0039, 3.8209 0.1656 0.0039, 3.8209 0.9642 0.0039, 3.1767 0.3526 0.0039, 1.2296 0.9642 0.0039, 3.8209 1.1811 0.0039, 3.2873 1.3681 0.0039, 3.1447 1.7438 0.0039, 2.9684 2.1048 0.0039, 2.253 3.0709 0.0039, 2.5206 2.7712 0.0039, 2.7598 2.4483 0.0039, 3.9783 1.1811 0.0039, 4.2146 1.3681 0.0039, 4.2146 0.9642 0.0039, -2.8175 1.5759 0.0039, -1.9125 1.5759 0.0039, -1.8548 0.9642 0.0039, -1.8548 3.0709 0.0039, -1.9125 1.8122 0.0039, -2.8175 1.8122 0.0039, -3.1396 1.3353 0.0039, -3.1854 1.3299 0.0039, -3.2287 1.3139 0.0039, -3.2672 1.2883 0.0039, -4.0207 3.0709 0.0039, -3.4257 0.9642 0.0039, -3.3212 1.2143 0.0039, -3.2986 1.2545 0.0039, -5.1664 0.9642 0.0039, -5.0339 1.431 0.0039, -4.8504 1.8806 0.0039, -4.6184 2.3072 0.0039, -4.1167 0.5512 0.0039, -5.1665 0.9638 0.0039, -4.1167 0.4921 0.0039, -5.246 0.4921 0.0039, -3.5477 0.6722 0.0039, -3.5704 0.6319 0.0039, -3.6018 0.5981 0.0039, -3.6402 0.5725 0.0039, -3.6835 0.5566 0.0039, -3.0492 0.1656 0.0039, -3.0492 0.4921 0.0039, -3.1396 0.9642 0.0039, -3.1396 0.4921 0.0039, -3.1396 -0.4921 0.0039, -3.0492 -0.4921 0.0039, -1.8548 -0.2329 0.0039, -0.7313 -0.2101 0.0039, -0.7697 -0.2329 0.0039, -0.7313 -0.1669 0.0039, -0.7697 0.1656 0.0039, -0.6735 0.1656 0.0039, -0.6858 0.1647 0.0039, -0.7313 0.1524 0.0039, -0.7313 0.0996 0.0039, -0.687 0.1185 0.0039, -0.7243 -0.1708 0.0039, -0.6391 0.1248 0.0039, -0.6004 0.1204 0.0039, -0.5709 0.1098 0.0039, -0.5436 0.0915 0.0039, -0.5199 0.0653 0.0039, -0.4913 -0.0379 0.0039, -0.4952 -0.0805 0.0039, -0.5059 -0.1144 0.0039, -0.5935 -0.188 0.0039, -0.6303 -0.1921 0.0039, -0.5649 -0.1774 0.0039, -0.5407 -0.1612 0.0039, -0.5222 -0.1417 0.0039, -0.6825 -0.1863 0.0039, -0.5036 0.0349 0.0039, -0.4931 -0.0072 0.0039, -0.6387 0.168 0.0039, -0.7697 0.9642 0.0039, -0.6093 0.1656 0.0039, -0.4216 0.9642 0.0039, -0.4592 0.0595 0.0039, -0.4823 0.0963 0.0039, -0.4216 0.1656 0.0039, -0.5363 -0.2172 0.0039, -0.5046 -0.1969 0.0039, -0.4216 -0.2329 0.0039, -0.4751 -0.1658 0.0039, -0.4541 -0.1284 0.0039, -0.5178 0.1305 0.0039, -0.5552 0.152 0.0039, -0.5991 0.1647 0.0039, -0.4423 -0.0867 0.0039, -0.4384 -0.0411 0.0039, -0.4441 0.0149 0.0039, -0.6338 -0.2351 0.0039, -0.7697 -0.9642 0.0039, -0.6496 -0.2329 0.0039, -0.6894 -0.2274 0.0039, -0.623 -0.2353 0.0039, -0.4216 -0.9642 0.0039, -0.5998 -0.2329 0.0039, -0.5745 -0.2303 0.0039, 2.6623 0.3526 0.0039, 2.6623 0.1656 0.0039, 1.2296 0.1656 0.0039, 1.2296 -0.2329 0.0039, -0.4216 -2.4415 0.0039, -0.7697 -2.4415 0.0039, -0.4216 -3.0709 0.0039, -1.4275 -0.9642 0.0039, -1.4275 -0.2329 0.0039, -0.4048 -0.1873 0.0039, -0.4048 -0.2305 0.0039, -0.2032 -0.2305 0.0039, -0.256 -0.1873 0.0039, -0.256 0.1632 0.0039, -0.2032 0.1632 0.0039, -1.0194 -0.1873 0.0039, -1.0194 -0.2305 0.0039, -1.0578 -0.2329 0.0039, -0.8081 -0.2305 0.0039, -1.0578 -0.9642 0.0039, -0.8081 0.1632 0.0039, -1.0098 0.1632 0.0039, -1.0578 0.1656 0.0039, -1.0098 0.12 0.0039, -0.861 0.12 0.0039, -0.861 -0.0097 0.0039, -0.861 -0.0529 0.0039, -0.861 -0.1873 0.0039, -1.0002 -0.0529 0.0039, -1.0002 -0.0097 0.0039, -1.0962 -0.2305 0.0039, -1.3385 -0.1889 0.0039, -1.3709 -0.1578 0.0039, -1.3934 -0.1226 0.0039, -1.4275 0.1656 0.0039, -1.3103 0.1409 0.0039, -1.3531 0.1122 0.0039, -1.2973 -0.2128 0.0039, -1.252 -0.2263 0.0039, -1.2033 -0.2305 0.0039, -1.0962 0.1632 0.0039, -1.2073 0.1632 0.0039, -1.2642 0.1571 0.0039, -1.3535 0.1118 0.0039, -1.3814 0.081 0.0039, -1.3997 0.0471 0.0039, -1.4102 0.0083 0.0039, -1.4131 -0.0287 0.0039, -1.4076 -0.0814 0.0039, -1.6997 -0.1201 0.0039, -1.5371 -0.1201 0.0039, -1.7396 -0.2305 0.0039, -1.4995 -0.2305 0.0039, -1.7972 -0.2305 0.0039, -1.4419 -0.2305 0.0039, -1.5907 0.1632 0.0039, -1.6436 0.1632 0.0039, -1.8548 0.1656 0.0039, -3.0492 -0.2329 0.0039, -1.4275 0.9642 0.0039, -1.0578 0.9642 0.0039, -1.4275 3.0709 0.0039, -1.0578 3.0709 0.0039, -0.7697 3.0709 0.0039, -0.4216 3.0709 0.0039, 1.2296 3.0709 0.0039, 1.2814 1.8515 0.1614, -1.5505 1.8515 0.1614, -1.5505 1.6359 0.1614, -1.7943 -1.8515 0.1614, -1.7943 -1.6359 0.1614, -1.9518 -1.7728 0.1614, -1.5505 -1.8515 0.1614, 1.2814 -1.8515 0.1614, -1.5505 -1.6359 0.1614, -1.9518 -1.6153 0.1614, -1.7943 1.6359 0.1614, -3.1396 -1.3353 0.1614, -2.9356 -1.3353 0.1614, -2.9356 -1.8515 0.1614, -2.7781 -1.7728 0.1614, -2.7781 -1.6153 0.1614, -3.1396 1.3353 0.1614, -2.9356 1.3353 0.1614, -2.7781 1.6153 0.1614, -2.9356 1.8515 0.1614, -2.7781 1.7728 0.1614, -1.7943 1.8515 0.1614, -1.9518 1.7728 0.1614, -1.9518 1.6153 0.1614, -3.1396 0.4921 0.0827, -3.0492 0.4921 0.0827, -3.1396 -0.4921 0.0827, -3.0492 -0.4921 0.0827, -5.246 -0.4921 0.0827, -5.1665 -0.9638 1.0276, -5.2468 -0.4849 1.0276, -5.2468 -0.4849 0.0827, -5.2736 -0.0 1.0276, -5.2736 -0.0 0.0827, -5.2468 0.4849 1.0276, -5.2468 0.4849 0.0827, -5.246 0.4921 0.0827, -5.1665 0.9638 1.0276, -4.0207 3.0709 1.0276, -4.3407 2.7056 1.0276, -4.6184 2.3072 1.0276, -4.8504 1.8806 1.0276, -5.0339 1.431 1.0276, -5.0339 -1.431 1.0276, -4.8504 -1.8806 1.0276, -4.6184 -2.3072 1.0276, -4.3407 -2.7056 1.0276, -4.0207 -3.0709 1.0276, 2.253 -3.0709 1.0236, 2.5206 -2.7712 1.0236, 2.7598 -2.4483 1.0236, 2.9684 -2.1048 1.0236, 3.1447 -1.7438 1.0236, 3.2873 -1.3681 1.0236, 1.872 2.8391 0.2402, 1.872 3.0709 0.2402, 1.872 -2.8391 1.0236, 1.872 -2.8391 0.2402, 1.872 -3.0709 1.0236, 1.872 -3.0709 0.2402, -3.6398 3.0709 1.0276, -3.6398 2.8391 1.0276, -3.9457 2.5062 1.0276, -4.2116 2.1405 1.0276, -4.434 1.747 1.0276, -4.6101 1.3306 1.0276, -4.7376 0.8968 1.0276, -4.8147 0.4514 1.0276, -4.8406 0.0 1.0276, -4.8147 -0.4514 1.0276, -4.7376 -0.8968 1.0276, -4.6101 -1.3306 1.0276, -4.434 -1.747 1.0276, -4.2116 -2.1405 1.0276, -3.9457 -2.5062 1.0276, -3.6398 -2.8391 1.0276, -3.6398 -3.0709 1.0276, -3.1396 1.3353 0.2402, -2.9356 1.3353 0.2402, -2.9356 1.8515 0.2402, 1.2814 -1.8515 0.2402, 2.6623 -0.3526 0.2402, 1.2814 1.8515 0.2402, 2.6623 0.3526 0.2402, -4.6101 1.3306 0.2402, -4.7376 0.8968 0.2402, -4.1167 0.5512 0.2402, -4.8147 0.4514 0.2402, -4.1167 -0.5512 0.2402, -4.8406 0.0 0.2402, -1.7943 1.6359 0.2402, -1.5505 1.6359 0.2402, -1.7943 1.8515 0.2402, -1.5505 1.8515 0.2402, -1.5505 -1.6359 0.2402, -1.7943 -1.6359 0.2402, -1.5505 -1.8515 0.2402, -1.7943 -1.8515 0.2402, 2.8099 1.4184 0.2402, 2.6347 1.8097 0.2402, -4.8147 -0.4514 0.2402, -4.7376 -0.8968 0.2402, -4.6101 -1.3306 0.2402, -4.2116 2.1405 0.2402, -3.2672 1.2883 0.2402, -3.9457 2.5062 0.2402, -3.2287 1.3139 0.2402, -3.6398 2.8391 0.2402, -3.1854 1.3299 0.2402, -3.6398 -3.0709 0.2402, 2.4183 2.1798 0.2402, 2.163 2.5242 0.2402, -3.5704 0.6319 0.2402, -3.5477 0.6722 0.2402, -4.434 1.747 0.2402, -3.3212 1.2143 0.2402, -3.2986 1.2545 0.2402, -3.6398 3.0709 0.2402, 3.0285 0.5906 0.2402, 2.9416 1.0104 0.2402, -3.7293 0.5512 0.2402, -3.6835 0.5566 0.2402, 2.163 -2.5242 0.2402, 2.4183 -2.1798 0.2402, 2.6347 -1.8097 0.2402, -3.6398 -2.8391 0.2402, -2.9356 -1.8515 0.2402, -2.9356 -1.3353 0.2402, 3.0285 -0.5906 0.2402, 2.9416 -1.0104 0.2402, 2.8099 -1.4184 0.2402, -3.1396 -1.3353 0.2402, -3.1854 -1.3299 0.2402, -3.9457 -2.5062 0.2402, -3.2287 -1.3139 0.2402, -4.2116 -2.1405 0.2402, -3.2672 -1.2883 0.2402, -3.2986 -1.2545 0.2402, -4.434 -1.747 0.2402, -3.3212 -1.2143 0.2402, -3.5477 -0.6722 0.2402, -3.6402 0.5725 0.2402, -3.6018 0.5981 0.2402, -3.5704 -0.6319 0.2402, -3.6018 -0.5981 0.2402, -3.6402 -0.5725 0.2402, -3.6835 -0.5566 0.2402, -3.7293 -0.5512 0.2402, 4.2146 -0.5906 1.0236, 3.9783 -0.5906 1.0236, 4.2146 -1.3681 1.0236, 3.9783 -1.1811 1.0236, 3.8209 -0.689 1.0236, 3.0124 -0.689 1.0236, 2.9416 -1.0104 1.0236, 3.8209 -1.1811 1.0236, 2.8099 -1.4184 1.0236, 2.6347 -1.8097 1.0236, 2.4183 -2.1798 1.0236, 2.163 -2.5242 1.0236, 3.0285 -0.5906 0.374, 3.0124 -0.689 0.374, 3.0124 0.689 0.374, 3.0285 0.5906 0.374, 3.8209 0.689 0.9449, 3.8209 -0.689 0.9449, -4.1167 0.4921 0.0827, -4.1167 -0.4921 0.0827, -2.7781 -1.7728 0.0433, -1.9518 -1.7728 0.0433, -1.9518 -1.6153 0.0433, -2.7781 -1.6153 0.0433, -2.7781 1.7728 0.0433, -2.7781 1.6153 0.0433, -1.9518 1.6153 0.0433, -1.9518 1.7728 0.0433
            ]
        }
        coordIndex [
            0,1,2,-1,3,4,5,-1,5,4,6,-1,5,6,7,-1,7,6,8,-1,2,7,0,-1,0,7,8,-1,0,8,9,-1,9,8,10,-1,9,10,11,-1,11,10,12,-1,11,12,13,-1,13,12,14,-1,13,14,15,-1,15,14,16,-1,15,16,17,-1,17,16,18,-1,17,18,19,-1,20,21,22,-1,23,24,20,-1,25,26,27,-1,28,29,22,-1,22,29,25,-1,22,25,20,-1,20,25,27,-1,20,27,23,-1,30,31,32,-1,33,30,34,-1,35,36,37,-1,38,39,37,-1,40,41,42,-1,43,44,45,-1,46,47,48,-1,48,47,49,-1,43,50,44,-1,44,50,51,-1,44,51,52,-1,52,51,53,-1,52,53,54,-1,55,56,48,-1,48,56,57,-1,48,57,46,-1,58,59,55,-1,55,59,60,-1,61,62,55,-1,55,62,63,-1,55,63,56,-1,60,64,55,-1,55,64,65,-1,55,65,61,-1,66,67,68,-1,68,67,58,-1,68,58,69,-1,69,58,55,-1,69,55,70,-1,70,55,71,-1,72,73,48,-1,48,73,74,-1,48,74,55,-1,55,74,75,-1,55,75,71,-1,31,76,53,-1,53,76,77,-1,77,72,53,-1,53,72,48,-1,53,48,54,-1,54,48,49,-1,54,49,45,-1,45,49,78,-1,45,78,43,-1,79,80,81,-1,81,80,82,-1,81,82,83,-1,84,85,86,-1,86,85,87,-1,87,85,88,-1,88,85,89,-1,88,89,90,-1,87,91,86,-1,86,91,92,-1,86,92,82,-1,82,92,93,-1,82,93,83,-1,89,94,90,-1,90,94,95,-1,90,95,96,-1,97,98,86,-1,86,98,84,-1,84,98,99,-1,84,99,100,-1,99,101,100,-1,100,101,102,-1,100,102,103,-1,103,102,104,-1,104,102,105,-1,104,105,106,-1,107,104,108,-1,108,104,106,-1,108,106,109,-1,109,106,110,-1,111,112,106,-1,106,112,113,-1,106,113,110,-1,107,108,114,-1,114,108,115,-1,114,115,42,-1,42,115,116,-1,42,116,40,-1,117,118,119,-1,120,121,122,-1,123,124,39,-1,39,124,125,-1,39,125,126,-1,120,122,127,-1,128,37,129,-1,129,37,39,-1,129,39,130,-1,130,39,126,-1,37,131,132,-1,132,133,37,-1,37,133,134,-1,37,134,38,-1,37,36,131,-1,131,36,135,-1,131,135,136,-1,136,135,137,-1,136,137,138,-1,128,139,37,-1,37,139,140,-1,37,140,141,-1,141,142,37,-1,37,142,143,-1,37,143,35,-1,144,145,119,-1,127,122,39,-1,39,122,117,-1,39,117,123,-1,123,117,119,-1,123,119,146,-1,146,119,145,-1,146,145,147,-1,50,148,51,-1,51,148,149,-1,51,149,150,-1,151,152,153,-1,153,152,154,-1,154,155,156,-1,156,157,154,-1,154,157,158,-1,154,158,153,-1,153,158,159,-1,153,159,160,-1,160,159,161,-1,160,161,162,-1,162,163,160,-1,160,163,164,-1,160,164,165,-1,166,167,160,-1,160,167,168,-1,169,170,171,-1,171,170,172,-1,168,173,160,-1,160,173,172,-1,160,172,174,-1,174,172,170,-1,165,175,160,-1,160,175,176,-1,160,176,166,-1,177,178,179,-1,179,178,180,-1,181,182,183,-1,184,185,186,-1,186,185,187,-1,186,187,188,-1,182,189,183,-1,183,189,190,-1,183,190,191,-1,188,192,186,-1,186,192,193,-1,186,193,183,-1,183,193,194,-1,183,194,181,-1,195,196,197,-1,197,196,152,-1,197,152,198,-1,198,152,151,-1,195,199,200,-1,200,199,201,-1,200,201,186,-1,186,201,202,-1,186,202,184,-1,203,204,205,-1,205,204,97,-1,205,97,206,-1,206,97,86,-1,195,200,196,-1,196,200,207,-1,196,207,208,-1,208,207,209,-1,208,209,33,-1,31,53,32,-1,32,53,51,-1,32,51,210,-1,210,51,150,-1,210,150,211,-1,183,212,186,-1,186,212,213,-1,186,213,214,-1,215,212,216,-1,216,212,183,-1,216,183,217,-1,217,183,205,-1,217,205,214,-1,214,205,206,-1,214,206,186,-1,186,206,86,-1,186,86,200,-1,200,86,82,-1,200,82,207,-1,207,82,80,-1,207,80,209,-1,218,219,220,-1,220,219,221,-1,33,34,208,-1,208,34,222,-1,208,222,196,-1,196,222,220,-1,196,220,152,-1,152,220,221,-1,152,221,154,-1,221,223,154,-1,154,223,224,-1,154,224,225,-1,225,224,226,-1,226,227,228,-1,229,230,231,-1,231,230,218,-1,231,218,232,-1,228,232,226,-1,226,232,218,-1,226,218,225,-1,225,218,220,-1,225,220,233,-1,234,211,235,-1,235,211,236,-1,237,238,239,-1,234,240,211,-1,211,240,241,-1,211,241,242,-1,233,243,225,-1,225,243,244,-1,225,244,237,-1,237,244,245,-1,237,245,238,-1,239,246,237,-1,237,246,247,-1,237,247,248,-1,30,32,34,-1,34,32,210,-1,34,210,222,-1,222,210,211,-1,222,211,220,-1,220,211,242,-1,220,242,233,-1,248,249,237,-1,237,249,250,-1,237,250,211,-1,211,250,251,-1,211,251,236,-1,252,253,254,-1,254,253,255,-1,256,254,150,-1,150,254,255,-1,150,255,211,-1,211,255,257,-1,211,257,237,-1,237,257,258,-1,237,258,259,-1,256,150,259,-1,259,150,260,-1,259,260,237,-1,191,179,183,-1,183,179,180,-1,183,180,205,-1,205,180,106,-1,205,106,203,-1,203,106,105,-1,149,261,150,-1,150,261,144,-1,150,144,260,-1,260,144,119,-1,260,119,237,-1,237,119,262,-1,237,262,225,-1,225,262,263,-1,225,263,154,-1,154,263,178,-1,154,178,155,-1,155,178,177,-1,118,121,119,-1,119,121,120,-1,119,120,262,-1,262,120,264,-1,262,264,263,-1,263,264,265,-1,263,265,178,-1,178,265,266,-1,178,266,180,-1,180,266,267,-1,180,267,106,-1,106,267,268,-1,106,268,111,-1,269,270,271,-1,272,273,274,-1,275,276,277,-1,277,276,269,-1,274,273,278,-1,279,280,271,-1,271,280,281,-1,272,274,282,-1,282,274,283,-1,282,283,281,-1,281,283,284,-1,281,284,271,-1,271,284,278,-1,271,278,269,-1,269,278,273,-1,269,273,277,-1,285,280,286,-1,286,280,287,-1,286,287,288,-1,288,287,289,-1,288,289,290,-1,290,289,291,-1,290,291,279,-1,279,291,292,-1,279,292,280,-1,280,292,287,-1,293,294,295,-1,295,294,296,-1,145,294,147,-1,147,294,293,-1,296,149,295,-1,295,149,148,-1,297,66,68,-1,298,299,300,-1,300,299,301,-1,300,301,302,-1,302,301,303,-1,302,303,304,-1,304,303,305,-1,305,303,306,-1,305,306,138,-1,307,127,39,-1,307,39,308,-1,39,38,308,-1,308,38,134,-1,308,134,309,-1,309,134,133,-1,309,133,310,-1,310,133,132,-1,310,132,311,-1,311,132,131,-1,311,131,306,-1,306,131,136,-1,306,136,138,-1,300,297,298,-1,298,297,68,-1,298,68,312,-1,312,68,69,-1,69,70,312,-1,312,70,71,-1,312,71,313,-1,313,71,75,-1,313,75,314,-1,314,75,74,-1,314,74,315,-1,77,316,72,-1,72,316,315,-1,72,315,73,-1,73,315,74,-1,317,79,81,-1,317,81,318,-1,318,81,83,-1,318,83,319,-1,319,83,93,-1,319,93,320,-1,93,92,320,-1,320,92,91,-1,320,91,321,-1,321,91,87,-1,321,87,322,-1,8,108,109,-1,8,109,10,-1,10,109,110,-1,10,110,12,-1,12,110,113,-1,12,113,14,-1,14,113,112,-1,14,112,16,-1,16,112,111,-1,16,111,18,-1,323,17,324,-1,324,17,19,-1,325,326,327,-1,327,326,328,-1,329,307,330,-1,330,307,308,-1,330,308,331,-1,331,308,332,-1,332,308,309,-1,332,309,333,-1,333,309,310,-1,333,310,334,-1,334,310,311,-1,334,311,335,-1,335,311,306,-1,335,306,336,-1,336,306,303,-1,336,303,337,-1,337,303,301,-1,337,301,338,-1,338,301,299,-1,338,299,339,-1,339,299,298,-1,339,298,340,-1,340,298,312,-1,340,312,341,-1,341,312,313,-1,341,313,342,-1,342,313,314,-1,342,314,343,-1,343,314,315,-1,343,315,344,-1,344,315,316,-1,344,316,345,-1,346,347,348,-1,349,350,351,-1,351,350,352,-1,353,354,355,-1,355,354,356,-1,355,356,357,-1,357,356,358,-1,359,360,361,-1,361,360,362,-1,363,364,365,-1,365,364,366,-1,367,368,351,-1,358,369,357,-1,357,369,370,-1,357,370,371,-1,372,373,374,-1,374,373,375,-1,374,375,376,-1,376,375,377,-1,349,328,326,-1,328,349,378,-1,368,379,351,-1,351,379,380,-1,351,380,362,-1,381,382,383,-1,383,382,384,-1,383,384,372,-1,372,384,385,-1,372,385,373,-1,377,346,376,-1,376,346,348,-1,376,348,386,-1,386,348,361,-1,386,361,324,-1,324,361,362,-1,324,362,323,-1,323,362,380,-1,27,26,352,-1,352,26,387,-1,352,387,351,-1,351,387,388,-1,351,388,367,-1,353,355,383,-1,383,355,389,-1,383,389,390,-1,326,391,349,-1,349,391,392,-1,349,392,393,-1,349,365,378,-1,378,365,366,-1,378,366,394,-1,394,366,395,-1,394,395,396,-1,24,23,397,-1,397,23,350,-1,397,350,398,-1,398,350,349,-1,398,349,399,-1,399,349,393,-1,396,400,394,-1,394,400,401,-1,394,401,402,-1,402,401,403,-1,402,403,404,-1,403,405,404,-1,404,405,406,-1,404,406,407,-1,407,406,408,-1,407,408,371,-1,371,408,409,-1,390,410,383,-1,383,410,411,-1,383,411,381,-1,409,412,371,-1,371,412,413,-1,371,413,414,-1,414,415,371,-1,371,415,416,-1,371,416,357,-1,330,376,329,-1,329,376,386,-1,394,344,378,-1,378,344,345,-1,417,418,419,-1,419,418,420,-1,419,420,322,-1,421,422,423,-1,421,423,424,-1,327,317,325,-1,325,317,318,-1,420,424,322,-1,322,424,423,-1,322,423,321,-1,321,423,425,-1,321,425,320,-1,320,425,426,-1,320,426,319,-1,319,426,427,-1,319,427,318,-1,318,427,428,-1,318,428,325,-1,40,4,41,-1,41,4,3,-1,115,6,116,-1,116,6,4,-1,116,4,40,-1,429,397,430,-1,430,397,398,-1,430,398,422,-1,326,325,391,-1,391,325,428,-1,391,428,392,-1,392,428,427,-1,392,427,393,-1,393,427,426,-1,393,426,399,-1,399,426,425,-1,399,425,398,-1,398,425,423,-1,398,423,422,-1,431,1,0,-1,388,387,432,-1,432,431,388,-1,388,431,0,-1,388,0,367,-1,367,0,9,-1,367,9,368,-1,368,9,11,-1,368,11,379,-1,379,11,13,-1,379,13,380,-1,380,13,15,-1,380,15,323,-1,323,15,17,-1,96,417,90,-1,90,417,419,-1,90,419,88,-1,115,108,6,-1,6,108,8,-1,87,88,322,-1,322,88,419,-1,432,387,25,-1,25,387,26,-1,107,114,7,-1,7,114,5,-1,41,3,42,-1,42,3,5,-1,42,5,114,-1,95,418,96,-1,96,418,417,-1,89,420,94,-1,94,420,418,-1,94,418,95,-1,89,85,420,-1,420,85,424,-1,7,2,107,-1,107,2,433,-1,107,433,104,-1,421,424,434,-1,434,424,85,-1,85,84,434,-1,434,84,100,-1,434,100,433,-1,433,100,103,-1,433,103,104,-1,20,24,429,-1,429,24,397,-1,376,330,374,-1,374,330,331,-1,374,331,372,-1,372,331,332,-1,372,332,383,-1,383,332,333,-1,383,333,353,-1,353,333,334,-1,353,334,354,-1,354,334,335,-1,354,335,356,-1,356,335,336,-1,356,336,358,-1,358,336,337,-1,358,337,369,-1,369,337,338,-1,369,338,370,-1,370,338,339,-1,370,339,371,-1,371,339,340,-1,371,340,407,-1,407,340,341,-1,407,341,404,-1,404,341,342,-1,404,342,402,-1,402,342,343,-1,402,343,394,-1,394,343,344,-1,137,135,435,-1,435,135,355,-1,435,355,436,-1,436,355,357,-1,436,357,67,-1,67,357,58,-1,35,389,36,-1,36,389,355,-1,36,355,135,-1,139,382,381,-1,139,381,140,-1,140,381,411,-1,140,411,141,-1,141,411,410,-1,141,410,142,-1,142,410,390,-1,142,390,143,-1,143,390,389,-1,143,389,35,-1,382,139,384,-1,384,139,128,-1,384,128,129,-1,285,346,377,-1,285,377,123,-1,384,129,385,-1,385,129,130,-1,385,130,373,-1,373,130,126,-1,373,126,375,-1,375,126,125,-1,375,125,377,-1,377,125,124,-1,377,124,123,-1,285,286,346,-1,346,286,347,-1,286,288,347,-1,347,288,348,-1,288,290,348,-1,348,290,361,-1,290,279,361,-1,361,279,359,-1,279,271,359,-1,359,271,360,-1,271,270,360,-1,360,270,362,-1,270,269,362,-1,362,269,351,-1,269,276,351,-1,351,276,349,-1,276,275,349,-1,349,275,365,-1,275,277,365,-1,365,277,363,-1,277,273,363,-1,363,273,364,-1,273,272,364,-1,364,272,366,-1,272,282,366,-1,366,282,395,-1,282,281,395,-1,395,281,396,-1,281,280,396,-1,396,280,400,-1,280,43,78,-1,400,280,401,-1,401,280,78,-1,401,78,403,-1,403,78,49,-1,403,49,405,-1,405,49,47,-1,405,47,406,-1,406,47,46,-1,406,46,408,-1,408,46,57,-1,63,409,56,-1,56,409,408,-1,56,408,57,-1,60,416,415,-1,60,415,64,-1,64,415,414,-1,64,414,65,-1,65,414,413,-1,65,413,61,-1,61,413,412,-1,61,412,62,-1,62,412,409,-1,62,409,63,-1,58,357,59,-1,59,357,416,-1,59,416,60,-1,297,300,436,-1,436,300,302,-1,436,302,435,-1,435,302,304,-1,435,304,305,-1,435,305,137,-1,137,305,138,-1,67,66,436,-1,436,66,297,-1,261,149,296,-1,261,296,144,-1,144,296,294,-1,144,294,145,-1,29,431,25,-1,25,431,432,-1,433,2,28,-1,28,2,1,-1,28,1,29,-1,29,1,431,-1,20,429,21,-1,21,429,430,-1,21,430,22,-1,22,430,422,-1,22,422,434,-1,434,422,421,-1,437,283,438,-1,438,283,274,-1,438,274,439,-1,439,274,278,-1,439,278,440,-1,440,278,284,-1,440,284,437,-1,437,284,283,-1,441,289,442,-1,442,289,287,-1,442,287,443,-1,443,287,292,-1,443,292,444,-1,444,292,291,-1,444,291,441,-1,441,291,289,-1,19,18,324,-1,324,18,111,-1,324,111,268,-1,268,267,324,-1,324,267,266,-1,324,266,386,-1,386,266,265,-1,386,265,264,-1,307,329,127,-1,127,329,386,-1,127,386,120,-1,120,386,264,-1,378,345,316,-1,317,327,79,-1,79,327,328,-1,79,328,80,-1,316,77,378,-1,378,77,76,-1,378,76,31,-1,31,30,378,-1,378,30,33,-1,378,33,328,-1,328,33,209,-1,328,209,80,-1,52,438,44,-1,44,438,439,-1,54,437,52,-1,52,437,438,-1,440,45,439,-1,439,45,44,-1,45,440,54,-1,54,440,437,-1,118,443,121,-1,121,443,444,-1,117,442,118,-1,118,442,443,-1,441,122,444,-1,444,122,121,-1,122,441,117,-1,117,441,442,-1,
        ]
    }
}
Shape{
    appearance Appearance {
        material  Material 	{
            diffuseColor 0.0 0.0 0.0
            specularColor 0.0 0.0 0.0
            ambientIntensity 0.0
            transparency 0.0
            shininess 0.5
        }
    }
    geometry IndexedFaceSet {
        ccw TRUE
        solid FALSE
        coord DEF co Coordinate {
            point [
                -1.6436 0.1632 0.0043, -1.7972 -0.2305 0.0043, -1.6436 0.1632 0.0039, -1.7972 -0.2305 0.0039, -1.7396 -0.2305 0.0043, -1.7396 -0.2305 0.0039, -1.6997 -0.1201 0.0043, -1.6997 -0.1201 0.0039, -1.5371 -0.1201 0.0043, -1.5371 -0.1201 0.0039, -1.4995 -0.2305 0.0043, -1.4995 -0.2305 0.0039, -1.4419 -0.2305 0.0043, -1.4419 -0.2305 0.0039, -1.5907 0.1632 0.0043, -1.5907 0.1632 0.0039, -1.5504 -0.0769 0.0043, -1.682 -0.0769 0.0043, -1.6091 0.0876 0.0043, -1.6129 0.1012 0.0043, -1.6154 0.1152 0.0043, -1.6167 0.1152 0.0043, -1.6193 0.1012 0.0043, -1.6228 0.0876 0.0043, -1.5504 -0.0769 0.0039, -1.682 -0.0769 0.0039, -1.6091 0.0876 0.0039, -1.6129 0.1012 0.0039, -1.6154 0.1152 0.0039, -1.6167 0.1152 0.0039, -1.6193 0.1012 0.0039, -1.6228 0.0876 0.0039, -1.2033 -0.2305 0.0043, -1.0962 -0.2305 0.0043, -1.2033 -0.2305 0.0039, -1.0962 -0.2305 0.0039, -1.0962 0.1632 0.0043, -1.0962 0.1632 0.0039, -1.2073 0.1632 0.0043, -1.2073 0.1632 0.0039, -1.4131 -0.0287 0.0043, -1.4131 -0.0287 0.0039, -1.4102 0.0083 0.0039, -1.4102 0.0083 0.0043, -1.3997 0.0471 0.0039, -1.3997 0.0471 0.0043, -1.3814 0.081 0.0039, -1.3814 0.081 0.0043, -1.3535 0.1118 0.0039, -1.3535 0.1118 0.0043, -1.3531 0.1122 0.0039, -1.3531 0.1122 0.0043, -1.3103 0.1409 0.0039, -1.3103 0.1409 0.0043, -1.2642 0.1571 0.0039, -1.2642 0.1571 0.0043, -1.252 -0.2263 0.0039, -1.252 -0.2263 0.0043, -1.2973 -0.2128 0.0039, -1.2973 -0.2128 0.0043, -1.3385 -0.1889 0.0039, -1.3385 -0.1889 0.0043, -1.3709 -0.1578 0.0039, -1.3709 -0.1578 0.0043, -1.3934 -0.1226 0.0039, -1.3934 -0.1226 0.0043, -1.4076 -0.0814 0.0039, -1.4076 -0.0814 0.0043, -1.3341 0.0648 0.0043, -1.3149 0.0851 0.0043, -1.2862 0.1036 0.0043, -1.2537 0.115 0.0043, -1.2071 0.12 0.0043, -1.149 0.12 0.0043, -1.149 -0.1873 0.0043, -1.2049 -0.1873 0.0043, -1.2465 -0.1835 0.0043, -1.2796 -0.1731 0.0043, -1.3064 -0.1572 0.0043, -1.3285 -0.1354 0.0043, -1.3451 -0.1082 0.0043, -1.3567 -0.0712 0.0043, -1.3603 -0.0299 0.0043, -1.3569 0.0093 0.0043, -1.3477 0.0405 0.0043, -1.2071 0.12 0.0039, -1.149 0.12 0.0039, -1.2537 0.115 0.0039, -1.2862 0.1036 0.0039, -1.3149 0.0851 0.0039, -1.3341 0.0648 0.0039, -1.3477 0.0405 0.0039, -1.3569 0.0093 0.0039, -1.3603 -0.0299 0.0039, -1.3567 -0.0712 0.0039, -1.3451 -0.1082 0.0039, -1.3285 -0.1354 0.0039, -1.3064 -0.1572 0.0039, -1.2796 -0.1731 0.0039, -1.2465 -0.1835 0.0039, -1.2049 -0.1873 0.0039, -1.149 -0.1873 0.0039, -1.0194 -0.1873 0.0043, -1.0194 -0.2305 0.0043, -1.0194 -0.1873 0.0039, -1.0194 -0.2305 0.0039, -0.8081 -0.2305 0.0043, -0.8081 -0.2305 0.0039, -0.8081 0.1632 0.0043, -0.8081 0.1632 0.0039, -1.0098 0.1632 0.0043, -1.0098 0.1632 0.0039, -1.0098 0.12 0.0043, -1.0098 0.12 0.0039, -0.861 0.12 0.0043, -0.861 0.12 0.0039, -0.861 -0.0097 0.0043, -0.861 -0.0097 0.0039, -1.0002 -0.0097 0.0043, -1.0002 -0.0097 0.0039, -1.0002 -0.0529 0.0043, -1.0002 -0.0529 0.0039, -0.861 -0.0529 0.0043, -0.861 -0.0529 0.0039, -0.861 -0.1873 0.0043, -0.861 -0.1873 0.0039, -0.7313 -0.1669 0.0043, -0.7313 -0.2101 0.0043, -0.7313 -0.1669 0.0039, -0.7313 -0.2101 0.0039, -0.6894 -0.2274 0.0043, -0.623 -0.2353 0.0043, -0.623 -0.2353 0.0039, -0.6338 -0.2351 0.0039, -0.6338 -0.2351 0.0043, -0.6496 -0.2329 0.0039, -0.6894 -0.2274 0.0039, -0.5998 -0.2329 0.0039, -0.5745 -0.2303 0.0043, -0.5745 -0.2303 0.0039, -0.5363 -0.2172 0.0043, -0.5363 -0.2172 0.0039, -0.5046 -0.1969 0.0043, -0.5046 -0.1969 0.0039, -0.4751 -0.1658 0.0043, -0.4751 -0.1658 0.0039, -0.4541 -0.1284 0.0043, -0.4541 -0.1284 0.0039, -0.4423 -0.0867 0.0043, -0.4423 -0.0867 0.0039, -0.4384 -0.0411 0.0043, -0.4384 -0.0411 0.0039, -0.5991 0.1647 0.0043, -0.6387 0.168 0.0043, -0.6093 0.1656 0.0039, -0.6387 0.168 0.0039, -0.5991 0.1647 0.0039, -0.5552 0.152 0.0039, -0.5552 0.152 0.0043, -0.5178 0.1305 0.0039, -0.5178 0.1305 0.0043, -0.4823 0.0963 0.0039, -0.4823 0.0963 0.0043, -0.4592 0.0595 0.0039, -0.4592 0.0595 0.0043, -0.4441 0.0149 0.0039, -0.4441 0.0149 0.0043, -0.6735 0.1656 0.0039, -0.6858 0.1647 0.0043, -0.6858 0.1647 0.0039, -0.7313 0.1524 0.0043, -0.7313 0.1524 0.0039, -0.7313 0.0996 0.0043, -0.7313 0.0996 0.0039, -0.6391 0.1248 0.0043, -0.6391 0.1248 0.0039, -0.687 0.1185 0.0039, -0.687 0.1185 0.0043, -0.4913 -0.0379 0.0043, -0.4913 -0.0379 0.0039, -0.4931 -0.0072 0.0039, -0.4931 -0.0072 0.0043, -0.5036 0.0349 0.0039, -0.5036 0.0349 0.0043, -0.5199 0.0653 0.0039, -0.5199 0.0653 0.0043, -0.5436 0.0915 0.0039, -0.5436 0.0915 0.0043, -0.5709 0.1098 0.0039, -0.5709 0.1098 0.0043, -0.6004 0.1204 0.0039, -0.6004 0.1204 0.0043, -0.6303 -0.1921 0.0043, -0.6303 -0.1921 0.0039, -0.5935 -0.188 0.0039, -0.5935 -0.188 0.0043, -0.5649 -0.1774 0.0039, -0.5649 -0.1774 0.0043, -0.5407 -0.1612 0.0039, -0.5407 -0.1612 0.0043, -0.5222 -0.1417 0.0039, -0.5222 -0.1417 0.0043, -0.5059 -0.1144 0.0039, -0.5059 -0.1144 0.0043, -0.4952 -0.0805 0.0039, -0.4952 -0.0805 0.0043, -0.7243 -0.1708 0.0039, -0.7243 -0.1708 0.0043, -0.6825 -0.1863 0.0039, -0.6825 -0.1863 0.0043, -0.4048 -0.1873 0.0043, -0.4048 -0.2305 0.0043, -0.4048 -0.1873 0.0039, -0.4048 -0.2305 0.0039, -0.2032 -0.2305 0.0043, -0.2032 -0.2305 0.0039, -0.2032 0.1632 0.0043, -0.2032 0.1632 0.0039, -0.256 0.1632 0.0043, -0.256 0.1632 0.0039, -0.256 -0.1873 0.0043, -0.256 -0.1873 0.0039
            ]
        }
        coordIndex [
            0,1,2,-1,2,1,3,-1,1,4,3,-1,3,4,5,-1,4,6,5,-1,5,6,7,-1,6,8,7,-1,7,8,9,-1,8,10,9,-1,9,10,11,-1,10,12,11,-1,11,12,13,-1,12,14,13,-1,13,14,15,-1,14,0,15,-1,15,0,2,-1,16,8,17,-1,17,8,6,-1,18,14,16,-1,16,14,12,-1,16,12,8,-1,8,12,10,-1,18,19,14,-1,14,19,20,-1,14,20,0,-1,0,20,21,-1,0,21,22,-1,22,23,0,-1,0,23,17,-1,0,17,1,-1,1,17,6,-1,1,6,4,-1,16,17,24,-1,24,17,25,-1,18,16,26,-1,26,16,24,-1,18,26,27,-1,18,27,19,-1,19,27,28,-1,19,28,20,-1,21,20,29,-1,29,20,28,-1,21,29,30,-1,21,30,22,-1,22,30,31,-1,22,31,23,-1,17,23,25,-1,25,23,31,-1,32,33,34,-1,34,33,35,-1,33,36,35,-1,35,36,37,-1,36,38,37,-1,37,38,39,-1,40,41,42,-1,40,42,43,-1,43,42,44,-1,43,44,45,-1,45,44,46,-1,45,46,47,-1,47,46,48,-1,47,48,49,-1,49,48,50,-1,49,50,51,-1,51,50,52,-1,51,52,53,-1,53,52,54,-1,53,54,55,-1,55,54,39,-1,55,39,38,-1,32,34,56,-1,32,56,57,-1,57,56,58,-1,57,58,59,-1,59,58,60,-1,59,60,61,-1,61,60,62,-1,61,62,63,-1,63,62,64,-1,63,64,65,-1,65,64,66,-1,65,66,67,-1,67,66,41,-1,67,41,40,-1,45,47,68,-1,68,47,49,-1,68,49,69,-1,69,49,51,-1,69,51,70,-1,70,51,53,-1,70,53,71,-1,71,53,55,-1,71,55,72,-1,72,55,38,-1,72,38,73,-1,73,38,36,-1,73,36,74,-1,74,36,33,-1,74,33,75,-1,75,33,32,-1,75,32,76,-1,76,32,57,-1,76,57,77,-1,77,57,59,-1,77,59,78,-1,78,59,61,-1,78,61,79,-1,79,61,63,-1,79,63,80,-1,80,63,65,-1,80,65,81,-1,81,65,67,-1,81,67,82,-1,82,67,40,-1,82,40,83,-1,83,40,43,-1,83,43,84,-1,84,43,45,-1,84,45,68,-1,72,73,85,-1,85,73,86,-1,72,85,87,-1,72,87,71,-1,71,87,88,-1,71,88,70,-1,70,88,89,-1,70,89,69,-1,69,89,90,-1,69,90,68,-1,68,90,91,-1,68,91,84,-1,84,91,92,-1,84,92,83,-1,83,92,93,-1,83,93,82,-1,82,93,94,-1,82,94,81,-1,81,94,95,-1,81,95,80,-1,80,95,96,-1,80,96,79,-1,79,96,97,-1,79,97,78,-1,78,97,98,-1,78,98,77,-1,77,98,99,-1,77,99,76,-1,76,99,100,-1,76,100,75,-1,74,75,101,-1,101,75,100,-1,73,74,86,-1,86,74,101,-1,102,103,104,-1,104,103,105,-1,103,106,105,-1,105,106,107,-1,106,108,107,-1,107,108,109,-1,108,110,109,-1,109,110,111,-1,110,112,111,-1,111,112,113,-1,112,114,113,-1,113,114,115,-1,114,116,115,-1,115,116,117,-1,116,118,117,-1,117,118,119,-1,118,120,119,-1,119,120,121,-1,120,122,121,-1,121,122,123,-1,122,124,123,-1,123,124,125,-1,124,102,125,-1,125,102,104,-1,106,103,102,-1,102,124,106,-1,106,124,122,-1,106,122,108,-1,112,110,114,-1,114,110,108,-1,114,108,116,-1,116,108,122,-1,116,122,118,-1,118,122,120,-1,126,127,128,-1,128,127,129,-1,129,127,130,-1,131,132,133,-1,131,133,134,-1,134,133,135,-1,134,135,130,-1,130,135,136,-1,130,136,129,-1,132,131,137,-1,137,131,138,-1,137,138,139,-1,139,138,140,-1,139,140,141,-1,141,140,142,-1,141,142,143,-1,143,142,144,-1,143,144,145,-1,145,144,146,-1,145,146,147,-1,147,146,148,-1,147,148,149,-1,149,148,150,-1,149,150,151,-1,152,153,154,-1,154,153,155,-1,154,156,152,-1,152,156,157,-1,152,157,158,-1,158,157,159,-1,158,159,160,-1,160,159,161,-1,160,161,162,-1,162,161,163,-1,162,163,164,-1,164,163,165,-1,164,165,166,-1,166,165,151,-1,166,151,150,-1,155,153,167,-1,167,153,168,-1,167,168,169,-1,169,168,170,-1,169,170,171,-1,170,172,171,-1,171,172,173,-1,174,175,176,-1,174,176,177,-1,177,176,173,-1,177,173,172,-1,178,179,180,-1,178,180,181,-1,181,180,182,-1,181,182,183,-1,183,182,184,-1,183,184,185,-1,185,184,186,-1,185,186,187,-1,187,186,188,-1,187,188,189,-1,189,188,190,-1,189,190,191,-1,191,190,175,-1,191,175,174,-1,192,193,194,-1,192,194,195,-1,195,194,196,-1,195,196,197,-1,197,196,198,-1,197,198,199,-1,199,198,200,-1,199,200,201,-1,201,200,202,-1,201,202,203,-1,203,202,204,-1,203,204,205,-1,205,204,179,-1,205,179,178,-1,126,128,206,-1,126,206,207,-1,207,206,208,-1,207,208,209,-1,209,208,193,-1,209,193,192,-1,195,131,192,-1,192,131,134,-1,192,134,209,-1,209,134,130,-1,209,130,207,-1,207,130,127,-1,207,127,126,-1,172,170,177,-1,177,170,168,-1,177,168,174,-1,174,168,153,-1,174,153,191,-1,191,153,152,-1,191,152,189,-1,189,152,158,-1,189,158,187,-1,187,158,160,-1,187,160,185,-1,185,160,162,-1,185,162,183,-1,183,162,164,-1,183,164,181,-1,181,164,166,-1,181,166,178,-1,178,166,150,-1,178,150,205,-1,205,150,148,-1,205,148,203,-1,203,148,146,-1,203,146,201,-1,201,146,144,-1,201,144,199,-1,199,144,142,-1,199,142,197,-1,197,142,140,-1,197,140,195,-1,195,140,138,-1,195,138,131,-1,210,211,212,-1,212,211,213,-1,211,214,213,-1,213,214,215,-1,214,216,215,-1,215,216,217,-1,216,218,217,-1,217,218,219,-1,218,220,219,-1,219,220,221,-1,220,210,221,-1,221,210,212,-1,218,216,220,-1,220,216,214,-1,220,214,210,-1,210,214,211,-1,
        ]
    }
}
Shape{
    appearance Appearance {
        material  Material 	{
            diffuseColor 0.5019607843137255 0.5019607843137255 0.5019607843137255
            specularColor 0.25098039215686274 0.25098039215686274 0.25098039215686274
            ambientIntensity 0.502
            transparency 0.0
            shininess 0.5
        }
    }
    geometry IndexedFaceSet {
        ccw TRUE
        solid FALSE
        coord DEF co Coordinate {
            point [
                -1.5504 -0.0769 0.0039, -1.682 -0.0769 0.0039, -1.6091 0.0876 0.0039, -1.6228 0.0876 0.0039, -1.6129 0.1012 0.0039, -1.6193 0.1012 0.0039, -1.6154 0.1152 0.0039, -1.6167 0.1152 0.0039, -1.149 0.12 0.0039, -1.149 -0.1873 0.0039, -1.2071 0.12 0.0039, -1.2049 -0.1873 0.0039, -1.2465 -0.1835 0.0039, -1.3603 -0.0299 0.0039, -1.3569 0.0093 0.0039, -1.3477 0.0405 0.0039, -1.2537 0.115 0.0039, -1.2796 -0.1731 0.0039, -1.3064 -0.1572 0.0039, -1.3285 -0.1354 0.0039, -1.3451 -0.1082 0.0039, -1.3567 -0.0712 0.0039, -1.3341 0.0648 0.0039, -1.3149 0.0851 0.0039, -1.2862 0.1036 0.0039, 3.1767 0.3526 0.2402, 3.1767 -0.3526 0.2402, 3.1516 0.3526 0.2402, 3.1516 -0.3526 0.2402, 2.6623 0.3526 0.2402, 2.6623 0.3526 0.0039, 3.1767 0.3526 0.0039, 3.1767 0.1656 0.0039, 3.1767 -0.2329 0.0039, 3.1767 -0.3526 0.0039, 2.6623 -0.3526 0.0039, 2.6623 -0.3526 0.2402, 2.6623 -0.2329 0.0039, 2.6623 0.1656 0.0039, -3.1396 -0.9642 0.0039, -3.1396 -1.3353 0.0039, -3.1396 -1.3353 0.1614, -3.1396 0.9642 0.0039, -3.1396 0.4921 0.0039, -3.1396 0.4921 0.0827, -3.1396 1.3353 0.1614, -3.1396 1.3353 0.0039, -3.1396 -0.4921 0.0827, -3.1396 -0.4921 0.0039
            ]
        }
        coordIndex [
            0,1,2,-1,2,1,3,-1,2,3,4,-1,4,3,5,-1,4,5,6,-1,6,5,7,-1,8,9,10,-1,10,9,11,-1,10,11,12,-1,13,14,10,-1,10,14,15,-1,10,15,16,-1,12,17,10,-1,10,17,18,-1,10,18,19,-1,19,20,10,-1,10,20,21,-1,10,21,13,-1,22,23,15,-1,15,23,24,-1,15,24,16,-1,25,26,27,-1,27,26,28,-1,29,30,27,-1,27,30,31,-1,27,31,25,-1,25,31,32,-1,25,32,26,-1,26,32,33,-1,26,33,34,-1,26,34,28,-1,28,34,35,-1,28,35,36,-1,36,35,37,-1,36,37,29,-1,29,37,38,-1,29,38,30,-1,39,40,41,-1,42,43,44,-1,45,46,42,-1,42,44,45,-1,45,44,47,-1,45,47,41,-1,41,47,48,-1,41,48,39,-1,
        ]
    }
}
Shape{
    appearance Appearance {
        material  Material 	{
            diffuseColor 0.5019607843137255 0.25098039215686274 0.0
            specularColor 0.44313725490196076 0.2196078431372549 0.0
            ambientIntensity 0.2974
            transparency 0.0
            shininess 0.5
        }
    }
    geometry IndexedFaceSet {
        ccw TRUE
        solid FALSE
        coord DEF co Coordinate {
            point [
                3.1516 0.689 0.9449, 3.1516 -0.689 0.9449, 3.8209 0.689 0.9449, 3.8209 -0.689 0.9449
            ]
        }
        coordIndex [
            0,1,2,-1,2,1,3,-1,
        ]
    }
}
Shape{
    appearance Appearance {
        material  Material 	{
            diffuseColor 1.0 1.0 0.0
            specularColor 0.5019607843137255 0.5019607843137255 0.0
            ambientIntensity 0.886
            transparency 0.0
            shininess 0.5
        }
    }
    geometry IndexedFaceSet {
        ccw TRUE
        solid FALSE
        coord DEF co Coordinate {
            point [
                2.5623 -1.013 0.7677, 2.5623 -1.013 0.374, 2.6153 -0.9689 0.374, 2.6153 -0.9689 0.7677, 2.6649 -0.9208 0.374, 2.6649 -0.9208 0.7677, 2.7106 -0.8691 0.374, 2.7106 -0.8691 0.7677, 2.7522 -0.814 0.374, 2.7522 -0.814 0.7677, 2.7895 -0.7559 0.374, 2.7895 -0.7559 0.7677, 2.8223 -0.6952 0.374, 2.8223 -0.6952 0.7677, 2.8504 -0.6322 0.374, 2.8504 -0.6322 0.7677, 2.8736 -0.5672 0.374, 2.8736 -0.5672 0.7677, 2.8918 -0.5006 0.374, 2.8918 -0.5006 0.7677, 2.9048 -0.4328 0.374, 2.9048 -0.4328 0.7677, 2.9127 -0.3642 0.374, 2.9127 -0.3642 0.7677, 2.9153 -0.2953 0.374, 2.9153 -0.2953 0.7677, 2.8563 -0.2953 0.7677, 2.8563 -0.2953 0.374, 2.8538 -0.3598 0.7677, 2.8538 -0.3598 0.374, 2.8465 -0.4239 0.7677, 2.8465 -0.4239 0.374, 2.8343 -0.4872 0.7677, 2.8343 -0.4872 0.374, 2.8173 -0.5494 0.7677, 2.8173 -0.5494 0.374, 2.7956 -0.6102 0.7677, 2.7956 -0.6102 0.374, 2.7693 -0.6692 0.7677, 2.7693 -0.6692 0.374, 2.7387 -0.7259 0.7677, 2.7387 -0.7259 0.374, 2.7038 -0.7802 0.7677, 2.7038 -0.7802 0.374, 2.6648 -0.8317 0.7677, 2.6648 -0.8317 0.374, 2.6221 -0.88 0.7677, 2.6221 -0.88 0.374, 2.5758 -0.925 0.7677, 2.5758 -0.925 0.374, 2.5263 -0.9663 0.7677, 2.5263 -0.9663 0.374, 2.4964 -0.9927 0.374, 2.4964 -0.9927 0.7677, 2.4704 -1.0229 0.374, 2.4704 -1.0229 0.7677, 2.4487 -1.0563 0.374, 2.4487 -1.0563 0.7677, 2.4318 -1.0923 0.374, 2.4318 -1.0923 0.7677, 2.4198 -1.1303 0.374, 2.4198 -1.1303 0.7677, 2.4131 -1.1696 0.374, 2.4131 -1.1696 0.7677, 2.4117 -1.2094 0.374, 2.4117 -1.2094 0.7677, 2.4158 -1.2491 0.374, 2.4158 -1.2491 0.7677, 2.4251 -1.2878 0.374, 2.4251 -1.2878 0.7677, 2.4815 -1.2701 0.7677, 2.4815 -1.2701 0.374, 2.4734 -1.2352 0.7677, 2.4734 -1.2352 0.374, 2.4706 -1.1995 0.7677, 2.4706 -1.1995 0.374, 2.4734 -1.1637 0.7677, 2.4734 -1.1637 0.374, 2.4815 -1.1289 0.7677, 2.4815 -1.1289 0.374, 2.4948 -1.0956 0.7677, 2.4948 -1.0956 0.374, 2.513 -1.0647 0.7677, 2.513 -1.0647 0.374, 2.5357 -1.037 0.7677, 2.5357 -1.037 0.374, 2.4251 1.2878 0.7677, 2.4251 1.2878 0.374, 2.4158 1.2491 0.374, 2.4158 1.2491 0.7677, 2.4117 1.2094 0.374, 2.4117 1.2094 0.7677, 2.4131 1.1696 0.374, 2.4131 1.1696 0.7677, 2.4198 1.1303 0.374, 2.4198 1.1303 0.7677, 2.4318 1.0923 0.374, 2.4318 1.0923 0.7677, 2.4487 1.0563 0.374, 2.4487 1.0563 0.7677, 2.4704 1.0229 0.374, 2.4704 1.0229 0.7677, 2.4964 0.9927 0.374, 2.4964 0.9927 0.7677, 2.5263 0.9663 0.374, 2.5263 0.9663 0.7677, 2.5758 0.925 0.7677, 2.5758 0.925 0.374, 2.6221 0.88 0.7677, 2.6221 0.88 0.374, 2.6648 0.8317 0.7677, 2.6648 0.8317 0.374, 2.7038 0.7802 0.7677, 2.7038 0.7802 0.374, 2.7387 0.7259 0.7677, 2.7387 0.7259 0.374, 2.7693 0.6692 0.7677, 2.7693 0.6692 0.374, 2.7956 0.6102 0.7677, 2.7956 0.6102 0.374, 2.8173 0.5494 0.7677, 2.8173 0.5494 0.374, 2.8343 0.4872 0.7677, 2.8343 0.4872 0.374, 2.8465 0.4239 0.7677, 2.8465 0.4239 0.374, 2.8538 0.3598 0.7677, 2.8538 0.3598 0.374, 2.8563 0.2953 0.7677, 2.8563 0.2953 0.374, 2.9153 0.2953 0.7677, 2.9153 0.2953 0.374, 2.9127 0.3642 0.374, 2.9127 0.3642 0.7677, 2.9048 0.4328 0.374, 2.9048 0.4328 0.7677, 2.8918 0.5006 0.374, 2.8918 0.5006 0.7677, 2.8736 0.5672 0.374, 2.8736 0.5672 0.7677, 2.8504 0.6322 0.374, 2.8504 0.6322 0.7677, 2.8223 0.6952 0.374, 2.8223 0.6952 0.7677, 2.7895 0.7559 0.374, 2.7895 0.7559 0.7677, 2.7522 0.814 0.374, 2.7522 0.814 0.7677, 2.7106 0.8691 0.374, 2.7106 0.8691 0.7677, 2.6649 0.9208 0.374, 2.6649 0.9208 0.7677, 2.6153 0.9689 0.374, 2.6153 0.9689 0.7677, 2.5623 1.013 0.374, 2.5623 1.013 0.7677, 2.5357 1.037 0.7677, 2.5357 1.037 0.374, 2.513 1.0647 0.7677, 2.513 1.0647 0.374, 2.4948 1.0956 0.7677, 2.4948 1.0956 0.374, 2.4815 1.1289 0.7677, 2.4815 1.1289 0.374, 2.4734 1.1637 0.7677, 2.4734 1.1637 0.374, 2.4706 1.1995 0.7677, 2.4706 1.1995 0.374, 2.4734 1.2352 0.7677, 2.4734 1.2352 0.374, 2.4815 1.2701 0.7677, 2.4815 1.2701 0.374
            ]
        }
        coordIndex [
            0,1,2,-1,0,2,3,-1,3,2,4,-1,3,4,5,-1,5,4,6,-1,5,6,7,-1,7,6,8,-1,7,8,9,-1,9,8,10,-1,9,10,11,-1,11,10,12,-1,11,12,13,-1,13,12,14,-1,13,14,15,-1,15,14,16,-1,15,16,17,-1,17,16,18,-1,17,18,19,-1,19,18,20,-1,19,20,21,-1,21,20,22,-1,21,22,23,-1,23,22,24,-1,23,24,25,-1,26,25,27,-1,27,25,24,-1,26,27,28,-1,28,27,29,-1,28,29,30,-1,30,29,31,-1,30,31,32,-1,32,31,33,-1,32,33,34,-1,34,33,35,-1,34,35,36,-1,36,35,37,-1,36,37,38,-1,38,37,39,-1,38,39,40,-1,40,39,41,-1,40,41,42,-1,42,41,43,-1,42,43,44,-1,44,43,45,-1,44,45,46,-1,46,45,47,-1,46,47,48,-1,48,47,49,-1,48,49,50,-1,50,49,51,-1,50,51,52,-1,50,52,53,-1,53,52,54,-1,53,54,55,-1,55,54,56,-1,55,56,57,-1,57,56,58,-1,57,58,59,-1,59,58,60,-1,59,60,61,-1,61,60,62,-1,61,62,63,-1,63,62,64,-1,63,64,65,-1,65,64,66,-1,65,66,67,-1,67,66,68,-1,67,68,69,-1,70,69,71,-1,71,69,68,-1,70,71,72,-1,72,71,73,-1,72,73,74,-1,74,73,75,-1,74,75,76,-1,76,75,77,-1,76,77,78,-1,78,77,79,-1,78,79,80,-1,80,79,81,-1,80,81,82,-1,82,81,83,-1,82,83,84,-1,84,83,85,-1,84,85,0,-1,0,85,1,-1,69,70,67,-1,67,70,72,-1,67,72,65,-1,65,72,74,-1,65,74,63,-1,63,74,76,-1,63,76,61,-1,61,76,78,-1,61,78,59,-1,59,78,80,-1,25,26,23,-1,23,26,28,-1,23,28,21,-1,21,28,30,-1,21,30,19,-1,19,30,32,-1,19,32,17,-1,17,32,34,-1,17,34,15,-1,15,34,36,-1,15,36,13,-1,13,36,38,-1,13,38,11,-1,11,38,40,-1,11,40,9,-1,9,40,42,-1,9,42,7,-1,7,42,44,-1,7,44,5,-1,5,44,46,-1,5,46,3,-1,3,46,48,-1,3,48,0,-1,0,48,50,-1,0,50,84,-1,84,50,53,-1,84,53,82,-1,82,53,55,-1,82,55,80,-1,80,55,57,-1,80,57,59,-1,71,68,73,-1,73,68,66,-1,73,66,75,-1,75,66,64,-1,75,64,77,-1,77,64,62,-1,77,62,79,-1,62,60,79,-1,79,60,58,-1,79,58,81,-1,81,58,56,-1,81,56,83,-1,83,56,54,-1,83,54,85,-1,85,54,52,-1,85,52,1,-1,1,52,51,-1,1,51,2,-1,2,51,49,-1,2,49,4,-1,4,49,47,-1,4,47,6,-1,6,47,45,-1,6,45,8,-1,8,45,43,-1,8,43,10,-1,10,43,41,-1,10,41,12,-1,12,41,39,-1,12,39,14,-1,14,39,37,-1,14,37,16,-1,16,37,35,-1,16,35,18,-1,18,35,33,-1,18,33,20,-1,20,33,31,-1,20,31,22,-1,22,31,29,-1,22,29,24,-1,24,29,27,-1,86,87,88,-1,86,88,89,-1,89,88,90,-1,89,90,91,-1,91,90,92,-1,91,92,93,-1,93,92,94,-1,93,94,95,-1,95,94,96,-1,95,96,97,-1,97,96,98,-1,97,98,99,-1,99,98,100,-1,99,100,101,-1,101,100,102,-1,101,102,103,-1,103,102,104,-1,103,104,105,-1,105,104,106,-1,106,104,107,-1,106,107,108,-1,108,107,109,-1,108,109,110,-1,110,109,111,-1,110,111,112,-1,112,111,113,-1,112,113,114,-1,114,113,115,-1,114,115,116,-1,116,115,117,-1,116,117,118,-1,118,117,119,-1,118,119,120,-1,120,119,121,-1,120,121,122,-1,122,121,123,-1,122,123,124,-1,124,123,125,-1,124,125,126,-1,126,125,127,-1,126,127,128,-1,128,127,129,-1,130,128,131,-1,131,128,129,-1,130,131,132,-1,130,132,133,-1,133,132,134,-1,133,134,135,-1,135,134,136,-1,135,136,137,-1,137,136,138,-1,137,138,139,-1,139,138,140,-1,139,140,141,-1,141,140,142,-1,141,142,143,-1,143,142,144,-1,143,144,145,-1,145,144,146,-1,145,146,147,-1,147,146,148,-1,147,148,149,-1,149,148,150,-1,149,150,151,-1,151,150,152,-1,151,152,153,-1,153,152,154,-1,153,154,155,-1,155,154,156,-1,156,154,157,-1,156,157,158,-1,158,157,159,-1,158,159,160,-1,160,159,161,-1,160,161,162,-1,162,161,163,-1,162,163,164,-1,164,163,165,-1,164,165,166,-1,166,165,167,-1,166,167,168,-1,168,167,169,-1,168,169,170,-1,170,169,171,-1,86,170,87,-1,87,170,171,-1,170,86,168,-1,168,86,89,-1,168,89,166,-1,166,89,91,-1,166,91,164,-1,128,130,126,-1,126,130,133,-1,126,133,124,-1,124,133,135,-1,124,135,122,-1,122,135,137,-1,122,137,120,-1,120,137,139,-1,120,139,118,-1,118,139,141,-1,118,141,116,-1,116,141,143,-1,116,143,114,-1,114,143,145,-1,114,145,112,-1,112,145,147,-1,112,147,110,-1,110,147,149,-1,110,149,108,-1,108,149,151,-1,108,151,106,-1,106,151,153,-1,106,153,105,-1,105,153,155,-1,105,155,103,-1,103,155,156,-1,103,156,101,-1,101,156,158,-1,101,158,99,-1,99,158,160,-1,99,160,97,-1,97,160,162,-1,97,162,95,-1,95,162,164,-1,95,164,93,-1,93,164,91,-1,87,171,88,-1,88,171,169,-1,88,169,90,-1,90,169,167,-1,90,167,92,-1,92,167,165,-1,92,165,94,-1,94,165,163,-1,131,129,132,-1,132,129,127,-1,132,127,134,-1,134,127,125,-1,134,125,136,-1,136,125,123,-1,136,123,138,-1,138,123,121,-1,138,121,140,-1,140,121,119,-1,140,119,142,-1,142,119,117,-1,142,117,144,-1,144,117,115,-1,144,115,146,-1,146,115,113,-1,146,113,148,-1,148,113,111,-1,148,111,150,-1,150,111,109,-1,150,109,152,-1,152,109,107,-1,152,107,154,-1,154,107,104,-1,154,104,157,-1,157,104,102,-1,157,102,159,-1,159,102,100,-1,159,100,161,-1,161,100,98,-1,161,98,163,-1,163,98,96,-1,163,96,94,-1,
        ]
    }
}